<svg width="24" height="24" viewBox="0 0 24 24" fill="none" xmlns="http://www.w3.org/2000/svg">
<path fill-rule="evenodd" clip-rule="evenodd" d="M15.0001 3H13.0001V5L15 5V7H17L17 9L15 9V11H17L17 9H19V7H17V5L15.0001 5V3ZM12.9999 3.00002H10.9999V9L9 9V7H7.00012V5H5.00012V7H7V9L8.99994 9V11H10.9999V13H8.99988V15L6.99994 15V17L5 17V19H7V17L8.99994 17V15L10.9999 15V21H12.9999V3.00002ZM15.0001 11H13.0001V13L15 13V15H17L17 17L15 17V19H13.0001V21H15.0001V19H17L17 17H19V15L17 15V13L15.0001 13V11Z" fill="currentColor"/>
</svg>
