<svg width="24" height="24" viewBox="0 0 24 24" fill="none" xmlns="http://www.w3.org/2000/svg">
<path fill-rule="evenodd" clip-rule="evenodd" d="M18.0001 2H16.0001V4H18.0001V2ZM4 4.00002H10V6.00002H4V20H18.0001V14H20.0001V22H20V22H2V22V20V6.00002V4.00002H4ZM8.00018 12H6.00018V16V18V18H12.0002V16L14 16V14H12V16L8.00018 16V12ZM12.0001 10H10.0001V11.9999H8.00012V9.99994H10.0001V8.00002H12V6.00002H14V8.00002H12.0001V10ZM14.0002 4.00002H16.0002V6.00002H14.0002V4.00002ZM18.0001 4.00002H20.0001V6.00002H22V8.00002H20.0001V10H18.0001V11.9999H16.0001V9.99994H18.0001V8.00002H20V6.00002H18.0001V4.00002ZM14.0002 12H16.0002V14H14.0002V12Z" fill="currentColor"/>
</svg>
