<svg width="24" height="24" viewBox="0 0 24 24" fill="none" xmlns="http://www.w3.org/2000/svg">
<rect width="2" height="1" transform="matrix(-1 0 0 1 13 3)" fill="currentColor"/>
<rect x="15" y="3" width="2" height="1" fill="currentColor"/>
<rect width="2" height="1" transform="matrix(-1 0 0 1 9 3)" fill="currentColor"/>
<rect x="19" y="3" width="2" height="1" fill="currentColor"/>
<rect width="2" height="1" transform="matrix(-1 0 0 1 5 3)" fill="currentColor"/>
<rect x="20" y="4" width="1" height="1" fill="currentColor"/>
<rect width="1" height="1" transform="matrix(-1 0 0 1 4 4)" fill="currentColor"/>
<rect x="20" y="7" width="1" height="2" fill="currentColor"/>
<rect width="1" height="2" transform="matrix(-1 0 0 1 4 7)" fill="currentColor"/>
<rect x="20" y="11" width="1" height="2" fill="currentColor"/>
<rect width="1" height="2" transform="matrix(-1 0 0 1 4 11)" fill="currentColor"/>
<rect x="20" y="15" width="1" height="2" fill="currentColor"/>
<rect width="1" height="2" transform="matrix(-1 0 0 1 4 15)" fill="currentColor"/>
<rect x="20" y="19" width="1" height="2" fill="currentColor"/>
<rect width="1" height="2" transform="matrix(-1 0 0 1 4 19)" fill="currentColor"/>
<rect x="19" y="20" width="1" height="1" fill="currentColor"/>
<rect width="1" height="1" transform="matrix(-1 0 0 1 5 20)" fill="currentColor"/>
<rect x="15" y="20" width="2" height="1" fill="currentColor"/>
<rect width="2" height="1" transform="matrix(-1 0 0 1 9 20)" fill="currentColor"/>
<rect width="2" height="1" transform="matrix(-1 0 0 1 13 20)" fill="currentColor"/>
<rect x="6" y="6" width="12" height="12" fill="currentColor"/>
</svg>
