<svg width="24" height="24" viewBox="0 0 24 24" fill="none" xmlns="http://www.w3.org/2000/svg">
<path fill-rule="evenodd" clip-rule="evenodd" d="M2 2H3H22V3V18H21H7V19H6V20H5V21H4V22H3H2V2ZM8 5H6V6H5V8H6V9H8V8H9V6H8V5ZM8 6V8H6V6H8ZM11 8H12V9H11V8ZM10 10V9H11V10H10ZM9 11V10H10V11H9ZM8 12V11H9V12H8ZM7 13V12H8V13H7ZM6 14V13H7V14H6ZM6 14V15H5V14H6ZM13 10H12V9H13V10ZM14 11H13V10H14V11ZM15 12H14V11H15V12ZM16 12H15V13H16V14H17V15H18V14H17V13H16V12ZM17 11V12H16V11H17ZM18 10V11H17V10H18ZM19 10H18V9H19V10ZM19 10H20V11H19V10Z" fill="currentColor"/>
<path fill-rule="evenodd" clip-rule="evenodd" d="M2 2H3H22V3V18H21H7V19H6V20H5V21H4V22H3H2V2ZM8 5H6V6H5V8H6V9H8V8H9V6H8V5ZM8 6V8H6V6H8ZM11 8H12V9H11V8ZM10 10V9H11V10H10ZM9 11V10H10V11H9ZM8 12V11H9V12H8ZM7 13V12H8V13H7ZM6 14V13H7V14H6ZM6 14V15H5V14H6ZM13 10H12V9H13V10ZM14 11H13V10H14V11ZM15 12H14V11H15V12ZM16 12H15V13H16V14H17V15H18V14H17V13H16V12ZM17 11V12H16V11H17ZM18 10V11H17V10H18ZM19 10H18V9H19V10ZM19 10H20V11H19V10Z" fill="currentColor"/>
</svg>
