<svg width="24" height="24" viewBox="0 0 24 24" fill="none" xmlns="http://www.w3.org/2000/svg">
<g clip-path="url(#clip0_104_10651)">
<path fill-rule="evenodd" clip-rule="evenodd" d="M11 1H13V2H11V1ZM10 2V1H11V0H13V1H14V2H13V3H11V2H10ZM9 3V2H10V3H9ZM8 4V3H9V4H8ZM8 4V5H7V4H8ZM15 3H14V2H15V3ZM16 4V3H15V4H16ZM16 4H17V5H16V4ZM11 9H13V8H11V9ZM9 13V11H8V13H9ZM13 15H11V16H13V15ZM15 13V11H16V13H15ZM11 13H13V14H11V13ZM11 11V13H10V11H11ZM13 11H11V10H13V11ZM13 13V11H14V13H13ZM11 21H13V22H11V21ZM11 23V22H10V21H9V20H8V19H7V20H8V21H9V22H10V23H11ZM13 23V24H11V23H13ZM14 22V23H13V22H14ZM15 21V22H14V21H15ZM16 20V21H15V20H16ZM16 20V19H17V20H16ZM3 13V11H2V10H3V9H4V8H5V7H4V8H3V9H2V10H1V11H0V13H1V14H2V15H3V16H4V17H5V16H4V15H3V14H2L2 13H3ZM2 13H1L1 11H2L2 13ZM21 13V11H22V13H21ZM23 13H22V14H21V15H20V16H19V17H20V16H21V15H22V14H23V13ZM23 11H24V13H23V11ZM22 10H23V11H22V10ZM21 9H22V10H21V9ZM20 8V9H21V8H20ZM20 8H19V7H20V8ZM11 19H13V20H11V19ZM5 13V11H4V13H5ZM11 5H13V4H11V5ZM19 13V11H20V13H19ZM11 17H13V18H11V17ZM7 13V11H6V13H7ZM11 7H13V6H11V7ZM17 13V11H18V13H17Z" fill="currentColor"/>
</g>
<defs>
<clipPath id="clip0_104_10651">
<rect width="24" height="24" fill="white"/>
</clipPath>
</defs>
</svg>
