<svg width="24" height="24" viewBox="0 0 24 24" fill="none" xmlns="http://www.w3.org/2000/svg">
<path fill-rule="evenodd" clip-rule="evenodd" d="M13 4H12V8H11V12H12V8H13V4ZM15 6H17V7H15V6ZM19 8H17V7H19V8ZM20 9H19V8H20V9ZM21 10H20V9H21V10ZM22 12H21V10H22V12ZM22 15V12H23V15H22ZM21 17V15H22V17H21ZM20 18V17H21V18H20ZM20 18V19H19V18H20ZM3 12H2V15H3V17H4V18H5V19H6V18H5V17H4V15H3V12ZM4 10V12H3V10H4ZM5 9V10H4V9H5ZM6 8V9H5V8H6ZM8 7V8H6V7H8ZM8 7H10V6H8V7ZM13 13V14H14V16H13V17H11V16H10V14H11V13H13Z" fill="currentColor"/>
</svg>
