<svg width="24" height="24" viewBox="0 0 24 24" fill="none" xmlns="http://www.w3.org/2000/svg">
<path fill-rule="evenodd" clip-rule="evenodd" d="M13 2H12H11V3H10V4H9V5H8V6H7V7H6V8H3V9V15V16H6V17H7V18H8V19H9V20H10V21H11V22H12H13V2ZM15 2H16V3H15V2ZM17 4H16V3H17V4ZM18 5H17V4H18V5ZM18 6V5H19V6H18ZM17 7V6H18V7H17ZM16 8V7H17V8H16ZM16 9H15V8H16V9ZM17 10H16V9H17V10ZM18 11H17V10H18V11ZM18 13V11H19V13H18ZM17 14V13H18V14H17ZM16 15V14H17V15H16ZM16 16H15V15H16V16ZM17 17H16V16H17V17ZM18 18V17H17V18H18ZM18 19V18H19V19H18ZM17 20V19H18V20H17ZM16 21V20H17V21H16ZM16 21V22H15V21H16ZM16 5H15V6H16V5ZM15 11H16V13H15V11ZM16 18H15V19H16V18Z" fill="currentColor"/>
</svg>
