<svg width="24" height="24" viewBox="0 0 24 24" fill="none" xmlns="http://www.w3.org/2000/svg">
<path fill-rule="evenodd" clip-rule="evenodd" d="M13 3H11V4H13V3ZM11 5H13V6H11V5ZM13 7H11V8H13V7ZM11 9H13V10H11V9ZM13 11H11V12H13V11ZM11 13H13V14H11V13ZM3 15H4V20H20V15H21V21H20H4H3V15ZM11 17H13V18H11V17ZM10 16V17H11V16H13V17H14V16H15V15H16V14H17V13H18V12H19V11H18V12H17V13H16V14H15V15H14V16H13V15H11V16H10ZM9 15V16H10V15H9ZM8 14H9V15H8V14ZM7 13H8V14H7V13ZM6 12H7V13H6V12ZM6 12V11H5V12H6Z" fill="currentColor"/>
</svg>
