<svg width="24" height="24" viewBox="0 0 24 24" fill="none" xmlns="http://www.w3.org/2000/svg">
<path fill-rule="evenodd" clip-rule="evenodd" d="M4 4H6V5H5V6H4V5V4ZM9 7V8H8V9H7V8V7H9ZM11 7V8H13V7H11ZM8 4H10V5H8V4ZM15 7V8H17V7H15ZM12 4H14V5H12V4ZM21 7H19V8H20V9H21V8V7ZM16 4H18V5V6H17V5H16V4ZM21 11H20V13H21V11ZM20 15H21V17H20V15ZM21 19H20V20H19V21H20H21V19ZM17 21V20H15V21H17ZM11 20H13V21H11V20ZM9 20H8V19H7V20V21H9V20ZM6 17V18H4V17V16H5V17H6ZM8 15H7V17H8V15ZM4 12H5V14H4V12ZM8 11H7V13H8V11ZM4 8H5V10H4V8ZM18 10H10V18H18V10Z" fill="currentColor"/>
</svg>
