<svg width="24" height="24" viewBox="0 0 24 24" fill="none" xmlns="http://www.w3.org/2000/svg">
<path fill-rule="evenodd" clip-rule="evenodd" d="M2 2H3V3H2V2ZM4 4H3V3H4V4ZM5 5H4V4H5V5ZM6 6H5V5H6V6ZM7 7H6V6H7V7ZM8 8H7V7H8V8ZM9 9H8V8H9V9ZM10 10H9V9H10V10ZM11 11H10V10H11V11ZM12 12H11V11H12V12ZM13 13H12V12H13V13ZM14 14H13V13H14V14ZM15 15H14V14H15V15ZM16 16H15V15H16V16ZM17 17H16V16H17V17ZM18 18H17V17H18V18ZM19 19H18V18H19V19ZM20 20H19V19H20V20ZM21 21H20V20H21V21ZM21 21H22V22H21V21ZM6 2H7V3H6V2ZM8 4H7V3H8V4ZM9 5H8V4H9V5ZM15 5H14V6H10V5H9V6V7H10V8H11V9H12V10H13V11H14V12H15V13H16V14H17V15H18V14H22V13H18V10H20V9H21V8H22V7H21V8H20V9H18V7H17V6H15V5ZM16 4V5H15V4H16ZM17 3V4H16V3H17ZM17 3V2H18V3H17ZM16 18H15V17H14V16H13H10V15H12V14H11V13H10V12H9V11H8V10H7V9H6H4V8H3V7H2V8H3V9H4V10H6V13H2V14H6V17H4V18H3V19H2V20H3V19H4V18H6V21H7V22H17V21H18V20H17V19H16V18Z" fill="currentColor"/>
</svg>
