<svg width="24" height="24" viewBox="0 0 24 24" fill="none" xmlns="http://www.w3.org/2000/svg">
<path fill-rule="evenodd" clip-rule="evenodd" d="M16 4H17H21H22V20H21H17H16V4ZM10 10H9V20H10H14H15V10H14H10ZM11 19H10V18H11V19ZM11 17V18H12V19H13V18H14V17H13V16H14V15H13V14H14V13H13V12H14V11H13V12H12V11H11V12H10V13H11V14H10V15H11V16H10V17H11ZM12 17H11V16H12V17ZM12 15H11V14H12V15ZM12 13H11V12H12V13ZM12 13V14H13V13H12ZM12 15H13V16H12V15ZM12 17H13V18H12V17ZM3 14H2V20H3H7H8V14H7H3ZM6 19V18H7V17H6V16H7V15H6V16H5V15H4V16H3V17H4V18H3V19H4V18H5V19H6ZM5 17H4V16H5V17ZM5 17V18H6V17H5Z" fill="currentColor"/>
</svg>
