<svg width="24" height="24" viewBox="0 0 24 24" fill="none" xmlns="http://www.w3.org/2000/svg">
<path fill-rule="evenodd" clip-rule="evenodd" d="M22 2H2V18H8V19H7V20H6V21H5V22H6V21H7V20H8V19H9V18H15V19H16V20H17V21H18V22H19V21H18V20H17V19H16V18H22V2ZM5 15H4V16H5V15ZM6 14V15H5V14H6ZM7 13H6V14H7V13ZM8 12V13H7V12H8ZM9 11H8V12H9V11ZM10 10V11H9V10H10ZM11 9H10V10H11V9ZM12 9H11V8H12V9ZM13 10H12V9H13V10ZM14 11V10H13V11H14ZM15 12H14V11H15V12ZM16 12H15V13H16V14H17V15H18V16H19V15H18V14H17V13H16V12ZM17 11H16V12H17V11ZM18 10H17V11H18V10ZM19 10H18V9H19V10ZM19 10V11H20V10H19ZM6 5H8V6H6V5ZM6 8H5V6H6V8ZM8 8V9H6V8H8ZM8 8H9V6H8V8Z" fill="currentColor"/>
</svg>
