<svg width="24" height="24" viewBox="0 0 24 24" fill="none" xmlns="http://www.w3.org/2000/svg">
<path fill-rule="evenodd" clip-rule="evenodd" d="M23 1H22V2H21V3H20V4H21V3H22V2H23V1ZM16 5H8V6H6V7H5V8H4V9H3V10H2V11H1V13H2V14H3V15H4V16H5V17H6V18H8V19H16V18H18V17H19V16H20V15H21V14H22V13H23V11H22V10H21V9H20V8H19V7H18V6H16V5ZM14 9H10V10H9V14H10V15H14V14H15V10H14V9ZM11 11H13V13H11V11ZM22 23H23V22H22V21H21V20H20V21H21V22H22V23ZM1 1H2V2H1V1ZM3 3H2V2H3V3ZM3 3H4V4H3V3ZM2 23H1V22H2V23ZM3 21H2V22H3V21ZM3 21V20H4V21H3Z" fill="currentColor"/>
</svg>
