<svg width="24" height="24" viewBox="0 0 24 24" fill="none" xmlns="http://www.w3.org/2000/svg">
<path fill-rule="evenodd" clip-rule="evenodd" d="M2 4H22V11H16V10H17V9H18V8H19V7H20V6H19V7H18V8H17V9H16V10H15V11H14H11V12H10V11H9V10H8V9H7V8H6V7H5V6H4V7H5V8H6V9H7V10H8V11H9V12H10V13H11V14V20H2V4Z" fill="currentColor"/>
<rect x="17" y="13" width="1" height="6" fill="currentColor"/>
<rect x="19" y="23" width="1" height="1" transform="rotate(180 19 23)" fill="currentColor"/>
<rect x="16" y="14" width="1" height="4" fill="currentColor"/>
<rect x="20" y="22" width="1" height="4" transform="rotate(180 20 22)" fill="currentColor"/>
<rect x="15" y="15" width="1" height="3" fill="currentColor"/>
<rect x="21" y="21" width="1" height="3" transform="rotate(180 21 21)" fill="currentColor"/>
<rect x="14" y="16" width="1" height="2" fill="currentColor"/>
<rect x="22" y="20" width="1" height="2" transform="rotate(180 22 20)" fill="currentColor"/>
<rect x="13" y="17" width="1" height="1" fill="currentColor"/>
<rect x="23" y="19" width="1" height="1" transform="rotate(180 23 19)" fill="currentColor"/>
<rect x="12" y="18" width="5" height="1" fill="currentColor"/>
<rect x="17" y="19" width="1" height="5" fill="currentColor"/>
<rect x="19" y="17" width="5" height="1" fill="currentColor"/>
<rect x="18" y="12" width="1" height="10" fill="currentColor"/>
</svg>
