<svg width="24" height="24" viewBox="0 0 24 24" fill="none" xmlns="http://www.w3.org/2000/svg">
<path fill-rule="evenodd" clip-rule="evenodd" d="M15 18V17L16 17V16L17 16V17H16V18H15ZM17 16V15H18V14H19V15H18V16L17 16ZM5.99998 14V15H6.99998V16H5.99998V15H4.99998V14H5.99998ZM8.00002 8H7.00002V9H6.00002V10H5.00002V11H4.00002V10H5.00002V9H6.00002V8H7.00002V7H7.99998V6.00003H8.99998V7.00003H8.00002V8ZM16 8H17V7H16V6.00003H15V7.00003H16V8ZM18 9H17V8H18V9ZM19 10V9H18V10H19ZM19 10V11H20V10H19ZM8.00002 16V17H9.00002V18H8.00002V17H7.00002V16H8.00002ZM19 14V13H20V12H20V11H21V12H21V13H20V14H19ZM5.00002 13V14H4.00002V13H3.00002L3.00002 12H2.99998V11H3.99998V12H4.00002V13H5.00002ZM17 11H18V13H17V11ZM5.99998 11H6.99998V13H5.99998V11ZM15 11H16V13H15V11ZM7.99998 11H8.99998V13H7.99998V11ZM13 11H14V13H13V11ZM9.99998 11H11V13H9.99998V11Z" fill="currentColor"/>
</svg>
