<svg width="24" height="24" viewBox="0 0 24 24" fill="none" xmlns="http://www.w3.org/2000/svg">
<g clip-path="url(#clip0_104_10660)">
<rect x="2" y="6" width="4" height="1" fill="currentColor"/>
<rect x="4" y="2" width="1" height="9" fill="currentColor"/>
<rect x="9" y="6" width="1" height="9" transform="rotate(90 9 6)" fill="currentColor"/>
<path fill-rule="evenodd" clip-rule="evenodd" d="M2 12V21H22V7V6H18V5H17V4H16V3H10V9H14V10H10V11V12H9V15H8V12H2ZM10 16H9V15H10V16ZM14 16V17H10V16H14ZM15 15V16H14V15H15ZM15 11H16V15H15V11ZM15 11V10H14V11H15Z" fill="currentColor"/>
</g>
<defs>
<clipPath id="clip0_104_10660">
<rect width="24" height="24" fill="white"/>
</clipPath>
</defs>
</svg>
