<svg width="24" height="24" viewBox="0 0 24 24" fill="none" xmlns="http://www.w3.org/2000/svg">
<rect x="2" y="9" width="1" height="6" fill="currentColor"/>
<rect x="10" y="9" width="1" height="4" fill="currentColor"/>
<rect width="1" height="4" transform="matrix(-1 0 0 1 14 11)" fill="currentColor"/>
<rect width="1" height="6" transform="matrix(-1 0 0 1 22 9)" fill="currentColor"/>
<rect x="3" y="8" width="1" height="1" fill="currentColor"/>
<rect x="11" y="8" width="1" height="1" fill="currentColor"/>
<rect width="1" height="1" transform="matrix(-1 0 0 1 21 8)" fill="currentColor"/>
<rect x="3" y="15" width="1" height="1" fill="currentColor"/>
<rect x="12" y="15" width="1" height="1" fill="currentColor"/>
<rect width="1" height="1" transform="matrix(-1 0 0 1 21 15)" fill="currentColor"/>
<rect x="4" y="7" width="5" height="1" fill="currentColor"/>
<rect x="12" y="7" width="8" height="1" fill="currentColor"/>
<rect x="4" y="16" width="8" height="1" fill="currentColor"/>
<rect x="15" y="16" width="5" height="1" fill="currentColor"/>
</svg>
