<svg width="24" height="24" viewBox="0 0 24 24" fill="none" xmlns="http://www.w3.org/2000/svg">
<path fill-rule="evenodd" clip-rule="evenodd" d="M13 1H11V2H10V3H9V4H8V5H7V6H6V7H2V23H22V7H18V6H17V5H16V4H15V3H14V2H13V1ZM13 2V3H14V4H15V5H16V6H17V7H7V6H8V5H9V4H10V3H11V2H13ZM4 20H5V21H4V20ZM6 19H5V20H6V19ZM7 18V19H6V18H7ZM8 17H7V18H8V17ZM9 16V17H8V16H9ZM10 15H9V16H10V15ZM11 14V15H10V14H11ZM12 14V13H11V14H12ZM13 15V14H12V15H13ZM14 16H13V15H14V16ZM15 17V16H14V17H15ZM16 17H15V18H16V19H17V20H18V21H19V20H18V19H17V18H16V17ZM17 16V17H16V16H17ZM18 15V16H17V15H18ZM19 15V14H18V15H19ZM19 15H20V16H19V15ZM8 11V10H6V11H5V13H6V14H8V13H9V11H8ZM8 11V13H6V11H8Z" fill="currentColor"/>
</svg>
