<svg width="24" height="24" viewBox="0 0 24 24" fill="none" xmlns="http://www.w3.org/2000/svg">
<path fill-rule="evenodd" clip-rule="evenodd" d="M4 4H20V5V15V16H4V15V5V4ZM3 17V16H4V17H3ZM2 18V17H3V18H2ZM22 18H23V19H24V20H0V19H1V18H2V19H22V18ZM21 17H22V18H21V17ZM21 17V16H20V17H21ZM5 5H19V15H5V5ZM6 6H18V7V13V14H6V13V7V6Z" fill="currentColor"/>
<rect x="2" y="18" width="20" height="1" fill="currentColor"/>
<rect x="3" y="17" width="18" height="1" fill="currentColor"/>
<rect x="4" y="16" width="16" height="1" fill="currentColor"/>
</svg>
