<svg width="24" height="24" viewBox="0 0 24 24" fill="none" xmlns="http://www.w3.org/2000/svg">
<path fill-rule="evenodd" clip-rule="evenodd" d="M3 2H4V3H5V4H6V5H7V4H8V3H9V2H10V3H11V4H12H13V3H14V2H15V3H16V4H17V5H18V4H19V3H20V2H21V22H20V21H19V20H18V19H17V20H16V21H15V22H14V21H13V20H12H11V21H10V22H9V21H8V20H7V19H6V20H5V21H4V22H3V2ZM6 11V12H12V11H6ZM14 8V9H6V8H7H8H9H10H11H12H13H14ZM6 14V15H7H8H9H10H11H12H13H14V14H6ZM18 8H17H16V9H18V8ZM16 11V12H18V11H16ZM16 15V14H18V15H17H16Z" fill="currentColor"/>
</svg>
