<svg width="24" height="24" viewBox="0 0 24 24" fill="none" xmlns="http://www.w3.org/2000/svg">
<path fill-rule="evenodd" clip-rule="evenodd" d="M18 0H6V1H18V0ZM4 2H20V3H4V2ZM4 21V22H20V21H4ZM6 23V24H18V23H6ZM2 4H22V20H2V4ZM4 17H5V18H4V17ZM6 16H5V17H6V16ZM7 15V16H6V15H7ZM8 14H7V15H8V14ZM9 13V14H8V13H9ZM10 12H9V13H10V12ZM11 11V12H10V11H11ZM12 11V10H11V11H12ZM13 12V11H12V12H13ZM14 13H13V12H14V13ZM15 14V13H14V14H15ZM16 14H15V15H16V16H17V17H18V18H19V17H18V16H17V15H16V14ZM17 13V14H16V13H17ZM18 12V13H17V12H18ZM19 12V11H18V12H19ZM19 12H20V13H19V12ZM8 7H6V8H5V10H6V11H8V10H9V8H8V7ZM8 8V10H6V8H8Z" fill="currentColor"/>
</svg>
