<svg width="24" height="24" viewBox="0 0 24 24" fill="none" xmlns="http://www.w3.org/2000/svg">
<path fill-rule="evenodd" clip-rule="evenodd" d="M15 4H16V6H15V4ZM14 8V6H15V8H14ZM13 10V8H14V10H13ZM12 12V10H13V12H12ZM11 14V12H12V14H11ZM10 16V14H11V16H10ZM9 18H10V16H9V18ZM9 18V20H8V18H9ZM8 6H7V7H6V8H5V9H4V10H3V11H2V13H3V14H4V15H5V16H6V17H7V16H6V15H5V14H4V13H3V11H4V10H5V9H6V8H7V7H8V6ZM18 7H17V8H18V9H19V10H20V11H21V13H20V14H19V15H18V16H17V17H16V18H17V17H18V16H19V15H20V14H21V13H22V11H21V10H20V9H19V8H18V7Z" fill="currentColor"/>
</svg>
