<svg width="24" height="24" viewBox="0 0 24 24" fill="none" xmlns="http://www.w3.org/2000/svg">
<path fill-rule="evenodd" clip-rule="evenodd" d="M12 0H11V4H12V0ZM15 6H8V7H7V8H6V9H5V12H6V11H14V12H15V13H16V14H17H18V9H17V8H16V7H15V6ZM18 5H19V6H18V5ZM20 4V5H19V4H20ZM21 3V4H20V3H21ZM21 3H22V2H21V3ZM5 5H6V6H5V5ZM4 4H5V5H4V4ZM3 3H4V4H3V3ZM3 3H2V2H3V3ZM24 11V12H20V11H24ZM12 12H8V13H7V14H6V15H4V16H3V17H2V20H3V21H4V22H15V21H16V20H17V17H16V15H15V14H14V13H12V12ZM8 16H6V15H8V16ZM9 17H8V16H9V17ZM9 17H10V18H9V17Z" fill="currentColor"/>
</svg>
