<svg width="24" height="24" viewBox="0 0 24 24" fill="none" xmlns="http://www.w3.org/2000/svg">
<path fill-rule="evenodd" clip-rule="evenodd" d="M22 3H2V21H22V3ZM5 18H4V19H5V18ZM6 17V18H5V17H6ZM7 16H6V17H7V16ZM8 15V16H7V15H8ZM9 14H8V15H9V14ZM10 13V14H9V13H10ZM11 12H10V13H11V12ZM12 12H11V11H12V12ZM13 13H12V12H13V13ZM14 14V13H13V14H14ZM15 15H14V14H15V15ZM16 15H15V16H16V17H17V18H18V19H19V18H18V17H17V16H16V15ZM17 14H16V15H17V14ZM18 13H17V14H18V13ZM19 13H18V12H19V13ZM19 13V14H20V13H19ZM6 6H8V7H6V6ZM6 9H5V7H6V9ZM8 9H9V7H8V9ZM8 9H6V10H8V9Z" fill="currentColor"/>
</svg>
