<svg width="24" height="24" viewBox="0 0 24 24" fill="none" xmlns="http://www.w3.org/2000/svg">
<path fill-rule="evenodd" clip-rule="evenodd" d="M20 2H21V3H20V2ZM19 4V3H20V4H19ZM18 5V4H19V5H18ZM17 6V5H18V6H17ZM16 7V6H17V7H16ZM15 8V7H16V8H15ZM14 9V8H15V9H14ZM13 10V9H14V10H13ZM12 11V10H13V11H12ZM12 13V12V11H11H10V10H9V9H8V8H7V7H6V6H5V5H4V4H3V3H2V2H1V3H2V4H3V5H4V6H5V7H6V8H7V9H8V10H9V11H10V12V13H9V14H8H2V15H1V21H2V22H8V21H9V15V14H10V13H11H12ZM13 14H12V13H13V14ZM20 15V14H14H13V15V21H14V22H20V21H21V15H20ZM20 15V21H14V15H20ZM8 21H2V15H8V21Z" fill="currentColor"/>
</svg>
