<svg width="24" height="24" viewBox="0 0 24 24" fill="none" xmlns="http://www.w3.org/2000/svg">
<path fill-rule="evenodd" clip-rule="evenodd" d="M4 2H24V18H4V2ZM6 15H7V16H6V15ZM8 14H7V15H8V14ZM9 13V14H8V13H9ZM10 12H9V13H10V12ZM11 11V12H10V11H11ZM12 10H11V11H12V10ZM13 9V10H12V9H13ZM14 9V8H13V9H14ZM15 10V9H14V10H15ZM16 11H15V10H16V11ZM17 12V11H16V12H17ZM18 12H17V13H18V14H19V15H20V16H21V15H20V14H19V13H18V12ZM19 11V12H18V11H19ZM20 10V11H19V10H20ZM21 10V9H20V10H21ZM21 10H22V11H21V10ZM10 5H8V6H7V8H8V9H10V8H11V6H10V5ZM10 6V8H8V6H10ZM3 4H2V19V20H22V19H3V4ZM1 21H20V22H0V21V6H1V21Z" fill="currentColor"/>
</svg>
