<svg width="24" height="24" viewBox="0 0 24 24" fill="none" xmlns="http://www.w3.org/2000/svg">
<path fill-rule="evenodd" clip-rule="evenodd" d="M6 2H7V3H6V2ZM8 4H7V3H8V4ZM9 5H8V4H9V5ZM15 5H14V6H10V5H9V6H7V7H6V9H4V8H3V7H2V8H3V9H4V10H6V13H2V14H6V17H4V18H3V19H2V20H3V19H4V18H6V21H7V22H14V11H18V10H20V9H21V8H22V7H21V8H20V9H18V7H17V6H15V5ZM16 4V5H15V4H16ZM17 3V4H16V3H17ZM17 3V2H18V3H17ZM10 12H12V13H10V12ZM12 15H10V16H12V15ZM16 13H17H18V14H19V15H20V16H21V17H22V19H21V20H20V21H19V22H18V23H17H16V13Z" fill="currentColor"/>
</svg>
