<svg width="24" height="24" viewBox="0 0 24 24" fill="none" xmlns="http://www.w3.org/2000/svg">
<path fill-rule="evenodd" clip-rule="evenodd" d="M19 2H18V5H14V6H18V8V9H19V8H20V7H21V6H22V5H21V4H20V3H19V2ZM13 3H2V4V10V20V21H22V20V10H13V3ZM6 6H8V7H6V6ZM6 9H5V7H6V9ZM8 9V10H6V9H8ZM8 9H9V7H8V9ZM11 11H12V12H11V11ZM10 13V12H11V13H10ZM9 14V13H10V14H9ZM8 15V14H9V15H8ZM7 16V15H8V16H7ZM6 17V16H7V17H6ZM5 18V17H6V18H5ZM5 18V19H4V18H5ZM13 13H12V12H13V13ZM14 14H13V13H14V14ZM15 15H14V14H15V15ZM16 15H15V16H16V17H17V18H18V19H19V18H18V17H17V16H16V15ZM17 14V15H16V14H17ZM18 13V14H17V13H18ZM19 13H18V12H19V13ZM19 13H20V14H19V13Z" fill="currentColor"/>
</svg>
