<svg width="24" height="24" viewBox="0 0 24 24" fill="none" xmlns="http://www.w3.org/2000/svg">
<path fill-rule="evenodd" clip-rule="evenodd" d="M7 3H6V4H7V3ZM7 5H6V6H7V5ZM18 17H19V18H18V17ZM11 3H10V4H11V3ZM10 17H11V18H10V17ZM9 3H8V4H9V3ZM8 17H9V18H8V17ZM7 17H6V18H7V17ZM12 3H13V4H12V3ZM13 17H12V18H13V17ZM14 3H15V4H14V3ZM15 17H14V18H15V17ZM16 3H17V4H16V3ZM17 17H16V18H17V17ZM18 3H19V4H18V3ZM21 3H20V4H21V3ZM20 5H21V6H20V5ZM21 7H20V8H21V7ZM6 7H7V8H6V7ZM21 9H20V10H21V9ZM6 9H7V10H6V9ZM21 11H20V12H21V11ZM6 11H7V12H6V11ZM21 13H20V14H21V13ZM6 13H7V14H6V13ZM21 15H20V16H21V15ZM6 15H7V16H6V15ZM21 17H20V18H21V17ZM16 20V21H4H3V8H4H5V19H16V20ZM18 6H9V15H18V6Z" fill="currentColor"/>
</svg>
