<svg width="24" height="24" viewBox="0 0 24 24" fill="none" xmlns="http://www.w3.org/2000/svg">
<path fill-rule="evenodd" clip-rule="evenodd" d="M18 0H19V5H24V6H23V7H22V8H21V9H20V10H19V11H18V12H17V7H12V6H13V5H14V4H15V3H16V2H17V1H18V0ZM17 12H16V11H15V10H14V9H11V4V3H2V4V10V20V21H22V20V13H21H17V12ZM12 11H11V12H10V13H9V14H8V15H7V16H6V17H5V18H4V19H5V18H6V17H7V16H8V15H9V14H10V13H11V12H12V13H13V14H14V15H15V16H16V17H17V18H18V19H19V18H18V17H17V16H16V15H17V14H16V15H15V14H14V13H13V12H12V11ZM8 6H6V7H5V9H6V10H8V9H9V7H8V6ZM8 7V9H6V7H8Z" fill="currentColor"/>
</svg>
