<svg width="24" height="24" viewBox="0 0 24 24" fill="none" xmlns="http://www.w3.org/2000/svg">
<path fill-rule="evenodd" clip-rule="evenodd" d="M3 3H21V21H3V3ZM4 17H5V18H4V17ZM5 16V17H6V16H7V15H8V14H9V13H10V12H11V11H12V10H13V9H14V8H15V7H16V6H17V5H18V4H17V5H16V4H15V5H14V4H13V5H12V4H11V5H10V4H9V5H8V4H7V5H6V4H5V5H4V6H5V7H4V8H5V9H4V10H5V11H4V12H5V13H4V14H5V15H4V16H5ZM6 15H5V16H6V15ZM6 14V15H7V14H8V13H9V12H10V11H11V10H12V9H13V8H14V7H15V6H16V5H15V6H14V5H13V6H12V5H11V6H10V5H9V6H8V5H7V6H6V5H5V6H6V7H5V8H6V9H5V10H6V11H5V12H6V13H5V14H6ZM7 13V14H6V13H7ZM7 12V13H8V12H9V11H10V10H11V9H12V8H13V7H14V6H13V7H12V6H11V7H10V6H9V7H8V6H7V7H6V8H7V9H6V10H7V11H6V12H7ZM8 11V12H7V11H8ZM8 10V11H9V10H10V9H11V8H12V7H11V8H10V7H9V8H8V7H7V8H8V9H7V10H8ZM9 9V10H8V9H9ZM9 9V8H10V9H9Z" fill="currentColor"/>
</svg>
