<svg width="24" height="24" viewBox="0 0 24 24" fill="none" xmlns="http://www.w3.org/2000/svg">
<path fill-rule="evenodd" clip-rule="evenodd" d="M9 5H14V6H9V5ZM17 7H14V6H17V7ZM19 8H17V7H19V8ZM20 9H19V8H20V9ZM21 10H20V9H21V10ZM22 12H21V10H22V12ZM22 15V12H23V15H22ZM21 17V15H22V17H21ZM20 18V17H21V18H20ZM20 18V19H19V18H20ZM2 10H3V12H2V10ZM2 15H1V12H2V15ZM3 17H2V15H3V17ZM4 18H3V17H4V18ZM4 18H5V19H4V18ZM5 7H4V8H5V9H6V10H7V11H8V12H9V13H10V14V16H11V17H13V16H14V14H13V13H11H10V12H9V11H8V10H7V9H6V8H5V7Z" fill="currentColor"/>
</svg>
