<svg width="24" height="24" viewBox="0 0 24 24" fill="none" xmlns="http://www.w3.org/2000/svg">
<path fill-rule="evenodd" clip-rule="evenodd" d="M2 4H22V13H15V20H2V4ZM4 6H5V7H4V6ZM6 8H5V7H6V8ZM7 9H6V8H7V9ZM8 10H7V9H8V10ZM9 11H8V10H9V11ZM10 12H9V11H10V12ZM11 13H10V12H11V13ZM13 13V14H11V13H13ZM14 12V13H13V12H14ZM15 11V12H14V11H15ZM16 10V11H15V10H16ZM17 9V10H16V9H17ZM18 8V9H17V8H18ZM19 7V8H18V7H19ZM19 7V6H20V7H19Z" fill="currentColor"/>
<path fill-rule="evenodd" clip-rule="evenodd" d="M21 15H22V16H21V15ZM20 17V16H21V17H20ZM20 18V17H19V16H18V15H17V16H18V17H19V18H18V19H17V20H18V19H19V18H20ZM21 19H20V18H21V19ZM21 19H22V20H21V19Z" fill="currentColor"/>
</svg>
