<svg width="24" height="24" viewBox="0 0 24 24" fill="none" xmlns="http://www.w3.org/2000/svg">
<path fill-rule="evenodd" clip-rule="evenodd" d="M17 2H7V3H5V4H4V5H3V7H2V17H3V19H4V20H5V21H7V22H17V21H19V20H20V19H21V17H22V7H21V5H20V4H19V3H17V2ZM17 4V3H7V4H5V5H4V7H3V17H4V19H5V20H7V21H17V20H19V19H20V17H21V7H20V5H19V4H17ZM17 4V5H19V7H20V17H19V19H17V20H7V19H5V17H4V7H5V5H7V4H17ZM11 6H12V7H15V8H9V7H11V6ZM9 12H8V8H9V12ZM15 13H9V12H15V13ZM15 16V13H16V16H15ZM15 16V17H13V18H12V17H9V16H15Z" fill="currentColor"/>
</svg>
