<svg width="24" height="24" viewBox="0 0 24 24" fill="none" xmlns="http://www.w3.org/2000/svg">
<path fill-rule="evenodd" clip-rule="evenodd" d="M22 3H2V21H22V3ZM9 14V8V7H10V8H11V7H12V8H13V7H14V8H15V14H9ZM15 7V8H16V14H21V15H16V20H15V15H9V20H8V15H3V14H8V8V7H9V6H10V7H11V6H12V7H13V6H14V7H15ZM15 6V7H16V8H17V7H18V8H19V7H20V8H21V7H20V6H21V5H20V4H19V5H18V4H17V5H16V4H15V5H14V4H13V5H12V4H11V5H10V4H9V5H8V4H7V5H6V4H5V5H4V4H3V5H4V6H3V7H4V8H5V7H6V8H7V7H8V6H9V5H10V6H11V5H12V6H13V5H14V6H15ZM16 6V7H17V6H18V7H19V6H20V5H19V6H18V5H17V6H16ZM16 6V5H15V6H16ZM7 6V7H6V6H7ZM5 6V7H4V6H5ZM5 6H6V5H5V6ZM7 6V5H8V6H7Z" fill="currentColor"/>
</svg>
