<svg width="24" height="24" viewBox="0 0 24 24" fill="none" xmlns="http://www.w3.org/2000/svg">
<path fill-rule="evenodd" clip-rule="evenodd" d="M13 1H11V2H13V1ZM11 3H13V4H11V3ZM13 5H11V6H13V5ZM13 7H11V8H13V7ZM11 16H13V17H11V16ZM13 18H11V19H13V18ZM11 20H13V21H11V20ZM13 22H11V23H13V22ZM15 15H16V16H15V15ZM17 17H16V16H17V17ZM18 18H17V17H18V18ZM19 19H18V18H19V19ZM19 19H20V20H19V19ZM15 8V9H16V8H17V7H18V6H19V5H20V4H19V5H18V6H17V7H16V8H15ZM4 4H5V5H4V4ZM6 6H5V5H6V6ZM7 7H6V6H7V7ZM8 8H7V7H8V8ZM8 8H9V9H8V8ZM4 19V20H5V19H6V18H7V17H8V16H9V15H8V16H7V17H6V18H5V19H4ZM16 11H17V13H16V11ZM2 11H1V13H2V11ZM18 11H19V13H18V11ZM4 11H3V13H4V11ZM20 11H21V13H20V11ZM6 11H5V13H6V11ZM22 11H23V13H22V11ZM8 11H7V13H8V11Z" fill="currentColor"/>
</svg>
