<svg width="24" height="24" viewBox="0 0 24 24" fill="none" xmlns="http://www.w3.org/2000/svg">
<rect x="20" y="7" width="1" height="1" fill="currentColor"/>
<rect width="1" height="1" transform="matrix(-1 0 0 1 4 7)" fill="currentColor"/>
<rect x="21" y="8" width="1" height="1" fill="currentColor"/>
<rect width="1" height="1" transform="matrix(-1 0 0 1 3 8)" fill="currentColor"/>
<rect x="22" y="9" width="1" height="1" fill="currentColor"/>
<rect width="1" height="1" transform="matrix(-1 0 0 1 2 9)" fill="currentColor"/>
<rect x="21" y="10" width="1" height="1" fill="currentColor"/>
<rect width="1" height="1" transform="matrix(-1 0 0 1 3 10)" fill="currentColor"/>
<rect x="20" y="11" width="1" height="1" fill="currentColor"/>
<rect width="1" height="1" transform="matrix(-1 0 0 1 4 11)" fill="currentColor"/>
<rect x="21" y="12" width="1" height="1" fill="currentColor"/>
<rect width="1" height="1" transform="matrix(-1 0 0 1 3 12)" fill="currentColor"/>
<rect x="22" y="13" width="1" height="1" fill="currentColor"/>
<rect width="1" height="1" transform="matrix(-1 0 0 1 2 13)" fill="currentColor"/>
<rect x="21" y="14" width="1" height="1" fill="currentColor"/>
<rect width="1" height="1" transform="matrix(-1 0 0 1 3 14)" fill="currentColor"/>
<rect x="20" y="15" width="1" height="1" fill="currentColor"/>
<rect width="1" height="1" transform="matrix(-1 0 0 1 4 15)" fill="currentColor"/>
<path fill-rule="evenodd" clip-rule="evenodd" d="M6 3H18V21H6V3ZM11 17H13V18H11V17ZM10 4H8H7V5V20H8H16H17V5V4H16H14H13H11H10ZM14 5V6H10V5H8V19H16V5H14Z" fill="currentColor"/>
</svg>
