<svg width="24" height="24" viewBox="0 0 24 24" fill="none" xmlns="http://www.w3.org/2000/svg">
<path fill-rule="evenodd" clip-rule="evenodd" d="M5 3H3V4V5H4V4H5V3ZM9 3H7V4H9V3ZM11 3H13V4H11V3ZM17 3H15V4H17V3ZM21 3H19V4H20V5H21V4V3ZM21 7H20V9H21V7ZM4 7H3V9H4V7ZM3 11H4V13H3V11ZM4 15H3V17H4V15ZM3 19H4V20H5V21H4H3V19ZM7 20H9V21H7V20ZM12 20H11V21H12V20ZM19 16H18V17H17V16H16V15H15V14H14V15H15V16H16V17H17V18H16V19H15V20H14V21H15V20H16V19H17V18H18V19H19V20H20V21H21V20H20V19H19V18H18V17H19V16ZM20 15H19V16H20V15ZM20 15H21V14H20V15ZM6 6H18V12H12V18H6V12V6Z" fill="currentColor"/>
</svg>
