<svg width="24" height="24" viewBox="0 0 24 24" fill="none" xmlns="http://www.w3.org/2000/svg">
<rect x="20" y="3" width="1" height="1" fill="currentColor"/>
<rect x="17" y="6" width="1" height="1" fill="currentColor"/>
<rect x="19" y="4" width="1" height="1" fill="currentColor"/>
<rect x="16" y="7" width="1" height="1" fill="currentColor"/>
<rect width="1" height="1" transform="matrix(-1 0 0 1 17 3)" fill="currentColor"/>
<rect width="1" height="1" transform="matrix(-1 0 0 1 19 5)" fill="currentColor"/>
<rect x="17" y="4" width="1" height="1" fill="currentColor"/>
<rect width="1" height="1" transform="matrix(-1 0 0 1 20 6)" fill="currentColor"/>
<rect width="1" height="1" transform="matrix(-1 0 0 1 21 7)" fill="currentColor"/>
<path fill-rule="evenodd" clip-rule="evenodd" d="M14 3H3V21H21V10H14V3ZM11 5H13V19H11V5ZM6 11H8V19H6V11ZM18 13H16V19H18V13Z" fill="currentColor"/>
</svg>
