<svg width="24" height="24" viewBox="0 0 24 24" fill="none" xmlns="http://www.w3.org/2000/svg">
<path fill-rule="evenodd" clip-rule="evenodd" d="M3 2H2V22H3V2ZM13 2H11V3H10V4H9V5H8V6H7V7H6V8H7V7H8V6H9V5H10V4H11V5H13V4H14V5H15V6H16V7H17V8H18V7H17V6H16V5H15V4H14V3H13V2ZM13 3V4H11V3H13ZM11 6H13V7H11V6ZM13 8H11V9H13V8ZM11 10H13V11H11V10ZM13 13H11V14H13V13ZM11 15H13V16H11V15ZM13 17H11V18H13V17ZM11 19H13V20H11V19ZM11 21V20H10V19H9V18H8V17H7V16H6V17H7V18H8V19H9V20H10V21H11ZM13 21V22H11V21H13ZM14 20V21H13V20H14ZM15 19V20H14V19H15ZM16 18V19H15V18H16ZM17 17V18H16V17H17ZM17 17V16H18V17H17ZM21 2H22V22H21V2Z" fill="currentColor"/>
</svg>
