<svg width="24" height="24" viewBox="0 0 24 24" fill="none" xmlns="http://www.w3.org/2000/svg">
<path fill-rule="evenodd" clip-rule="evenodd" d="M17 2H7V3H5V4H4V5H3V7H2V17H3V19H4V20H5V21H7V22H17V21H19V20H20V19H21V17H22V7H21V5H20V4H19V3H17V2ZM17 4V3H7V4H5V5H4V7H3V17H4V19H5V20H7V21H17V20H19V19H20V17H21V7H20V5H19V4H17ZM17 4V5H19V7H20V17H19V19H17V20H7V19H5V17H4V7H5V5H7V4H17ZM15 9H16V10H15V9ZM14 11V10H15V11H14ZM13 12V11H14V12H13ZM12 13V12H13V13H12ZM11 14V13H12V14H11ZM10 14H11V15H10V14ZM9 13H10V14H9V13ZM9 13H8V12H9V13Z" fill="currentColor"/>
</svg>
