<svg width="24" height="24" viewBox="0 0 24 24" fill="none" xmlns="http://www.w3.org/2000/svg">
<path fill-rule="evenodd" clip-rule="evenodd" d="M2 3H22V4V5H21V6H20V7H21V8H22V9H21V10H20V11H21V12H22V13H21V14H20V15H21V16H22V17H21V18H20V19H21V20H22V21H2V20V4V3ZM6 6H8V7H6V6ZM6 9H5V7H6V9ZM8 9V10H6V9H8ZM8 9H9V7H8V9ZM12 11H11V12H10V13H9V14H8V15H7V16H6V17H5V18H4V19H5V18H6V17H7V16H8V15H9V14H10V13H11V12H12V13H13V14H14V15H15V16H16V17H17V18H18V17H17V16H16V15H17V14H18V13H17V14H16V15H15V14H14V13H13V12H12V11Z" fill="currentColor"/>
</svg>
