<svg width="24" height="24" viewBox="0 0 24 24" fill="none" xmlns="http://www.w3.org/2000/svg">
<rect x="7" y="3" width="9" height="1" fill="currentColor"/>
<rect width="9" height="1" transform="matrix(1 0 0 -1 7 21)" fill="currentColor"/>
<rect x="8" y="4" width="7" height="1" fill="currentColor"/>
<rect width="7" height="1" transform="matrix(1 0 0 -1 8 20)" fill="currentColor"/>
<rect x="9" y="5" width="5" height="1" fill="currentColor"/>
<rect width="5" height="1" transform="matrix(1 0 0 -1 9 19)" fill="currentColor"/>
<rect x="10" y="6" width="3" height="1" fill="currentColor"/>
<rect width="3" height="1" transform="matrix(1 0 0 -1 10 18)" fill="currentColor"/>
<rect x="13" y="6" width="1" height="1" fill="currentColor"/>
<rect width="1" height="1" transform="matrix(1 0 0 -1 13 18)" fill="currentColor"/>
<rect x="14" y="5" width="1" height="1" fill="currentColor"/>
<rect width="1" height="1" transform="matrix(1 0 0 -1 14 19)" fill="currentColor"/>
<rect x="15" y="4" width="1" height="1" fill="currentColor"/>
<rect width="1" height="1" transform="matrix(1 0 0 -1 15 20)" fill="currentColor"/>
<rect x="16" y="3" width="1" height="1" fill="currentColor"/>
<rect width="1" height="1" transform="matrix(1 0 0 -1 16 21)" fill="currentColor"/>
<rect x="11" y="7" width="2" height="1" fill="currentColor"/>
<rect width="2" height="1" transform="matrix(1 0 0 -1 11 17)" fill="currentColor"/>
<rect x="4" y="12" width="16" height="1" fill="currentColor"/>
</svg>
