<svg width="24" height="24" viewBox="0 0 24 24" fill="none" xmlns="http://www.w3.org/2000/svg">
<path fill-rule="evenodd" clip-rule="evenodd" d="M10 4H6V5H10V4ZM5 6H4V9H12H14V8H13V7H12V6H5ZM3 10H2V17H3H21V16H22V15H23V14H24V11V10H3ZM6 18H3V19H0V20H3V19H6V20H9V19H12V20H15V19H18V20H21V19H24V18H21V19H18V18H15V19H12V18H9V19H6V18Z" fill="currentColor"/>
<rect x="2" y="17" width="1" height="1" fill="currentColor"/>
<rect x="6" y="17" width="3" height="1" fill="currentColor"/>
<rect x="12" y="17" width="3" height="1" fill="currentColor"/>
<rect x="18" y="17" width="2" height="1" fill="currentColor"/>
</svg>
