<svg width="24" height="24" viewBox="0 0 24 24" fill="none" xmlns="http://www.w3.org/2000/svg">
<path fill-rule="evenodd" clip-rule="evenodd" d="M7 2H17V3H16V5H17V6H16V7H15V6H9V7H8V8H7V9H6V15H7V16H8V17H9V18H15V17H16V16H17V15H18V9H17V8H18V7H19V8H21V7H22V17H21V19H20V20H19V21H17V22H7V21H5V20H4V19H3V17H2V7H3V5H4V4H5V3H7V2ZM16 8H17V7H16V8ZM16 9H17V15H16V16H15V17H9V16H8V15H7V9H8V8H9V7H15V8H14V9H13V10H11V11H10V13H11V14H13V13H14V11H15V10H16V9ZM15 9V8H16V9H15ZM14 10H13V11H11V13H13V11H14V10ZM14 10H15V9H14V10Z" fill="currentColor"/>
<path fill-rule="evenodd" clip-rule="evenodd" d="M19 1H20V3H19V1ZM21 3H20V4H19V5H18V3H17V5H18V6H17V7H16V8H15V9H14V10H13V11H12V12H13V11H14V10H15V9H16V8H17V7H18V6H19V7H21V6H19V5H20V4H21V5H23V4H21V3ZM21 3V2H22V3H21Z" fill="currentColor"/>
</svg>
