<svg width="24" height="24" viewBox="0 0 24 24" fill="none" xmlns="http://www.w3.org/2000/svg">
<path fill-rule="evenodd" clip-rule="evenodd" d="M17 4H2V20H22V8H19H18V9H17V8V4ZM16 10V9H17V10H16ZM15 11V10H16V11H15ZM14 12V11H15V12H14ZM13 13V12H14V13H13ZM11 13H13V14H11V13ZM10 12H11V13H10V12ZM9 11H10V12H9V11ZM8 10H9V11H8V10ZM7 9H8V10H7V9ZM6 8H7V9H6V8ZM5 7H6V8H5V7ZM5 7H4V6H5V7Z" fill="currentColor"/>
<rect x="18" y="4" width="4" height="2" fill="currentColor"/>
<rect x="19" y="3" width="2" height="4" fill="currentColor"/>
</svg>
