<svg width="24" height="24" viewBox="0 0 24 24" fill="none" xmlns="http://www.w3.org/2000/svg">
<path fill-rule="evenodd" clip-rule="evenodd" d="M7 2H6V6H17H18V2H17H7ZM7 22H6V17H17H18V22H17H7ZM16 10H17V9H18V8H19V7H20V11H22V12H20V15V16H19V15H18V14H17V13H16V12H15V11H16V10ZM7 10H8V11H9V12H8V13H7V14H6V15H5V16H4V15V12H2V11H4V7H5V8H6V9H7V10Z" fill="currentColor"/>
<rect x="7" y="6" width="10" height="1" fill="currentColor"/>
<rect width="10" height="1" transform="matrix(1 0 0 -1 7 17)" fill="currentColor"/>
<rect x="8" y="7" width="8" height="1" fill="currentColor"/>
<rect width="8" height="1" transform="matrix(1 0 0 -1 8 16)" fill="currentColor"/>
<rect x="9" y="8" width="6" height="1" fill="currentColor"/>
<rect width="6" height="1" transform="matrix(1 0 0 -1 9 15)" fill="currentColor"/>
<rect x="10" y="9" width="4" height="1" fill="currentColor"/>
<rect width="4" height="1" transform="matrix(1 0 0 -1 10 14)" fill="currentColor"/>
<rect x="11" y="10" width="2" height="1" fill="currentColor"/>
<rect width="2" height="1" transform="matrix(1 0 0 -1 11 13)" fill="currentColor"/>
</svg>
