<svg width="24" height="24" viewBox="0 0 24 24" fill="none" xmlns="http://www.w3.org/2000/svg">
<path fill-rule="evenodd" clip-rule="evenodd" d="M2 2H3V3H2V2ZM4 4H3V3H4V4ZM5 5H4V4H5V5ZM6 6H5V5H6V6ZM7 7H6V6H7V7ZM8 8H7V7H8V8ZM9 9H8V8H9V9ZM10 10H9V9H10V10ZM11 11H10V10H11V11ZM12 12H11V11H12V12ZM13 13H12V12H13V13ZM14 14H13V13H14V14ZM15 15H14V14H15V15ZM16 16H15V15H16V16ZM17 17H16V16H17V17ZM18 18H17V17H18V18ZM19 19H18V18H19V19ZM20 20H19V19H20V20ZM21 21H20V20H21V21ZM21 21H22V22H21V21ZM6 2H12V3H6V2ZM4 8H5V21H18V22H5H4V21V8ZM14 3H13V9H14H15H16H17H18H19V8H18V7H17V6H16V5H15V4H14V3ZM20 10H19V16H20V10Z" fill="currentColor"/>
<rect x="7" y="3" width="1" height="1" fill="currentColor"/>
<rect x="18" y="14" width="1" height="1" fill="currentColor"/>
<rect x="17" y="13" width="2" height="1" fill="currentColor"/>
<rect x="16" y="12" width="3" height="1" fill="currentColor"/>
<rect x="15" y="11" width="4" height="1" fill="currentColor"/>
<rect x="14" y="10" width="5" height="1" fill="currentColor"/>
<rect x="8" y="3" width="1" height="2" fill="currentColor"/>
<rect x="9" y="3" width="1" height="3" fill="currentColor"/>
<rect x="10" y="3" width="1" height="4" fill="currentColor"/>
<rect x="11" y="3" width="1" height="5" fill="currentColor"/>
<rect x="5" y="9" width="1" height="12" fill="currentColor"/>
<rect x="6" y="10" width="1" height="11" fill="currentColor"/>
<rect x="7" y="11" width="1" height="10" fill="currentColor"/>
<rect x="8" y="12" width="1" height="9" fill="currentColor"/>
<rect x="9" y="13" width="1" height="8" fill="currentColor"/>
<rect x="10" y="14" width="1" height="7" fill="currentColor"/>
<rect x="11" y="15" width="1" height="6" fill="currentColor"/>
<rect x="12" y="16" width="1" height="5" fill="currentColor"/>
<rect x="13" y="17" width="1" height="4" fill="currentColor"/>
<rect x="14" y="18" width="1" height="3" fill="currentColor"/>
<rect x="15" y="19" width="1" height="2" fill="currentColor"/>
<rect x="16" y="20" width="1" height="1" fill="currentColor"/>
</svg>
