<svg width="24" height="24" viewBox="0 0 24 24" fill="none" xmlns="http://www.w3.org/2000/svg">
<path fill-rule="evenodd" clip-rule="evenodd" d="M2 2H3H22V3V11H3V17H13V18H7V19H6V20H5V21H4V22H3H2V19V18V2ZM20 15H19V16H18V15H17V14H16V13H15V14H16V15H17V16H18V17H17V18H16V19H15V20H16V19H17V18H18V17H19V18H20V19H21V20H22V19H21V18H20V17H19V16H20V15ZM21 14H20V15H21V14ZM21 14H22V13H21V14Z" fill="currentColor"/>
<rect x="12" y="10" width="9" height="1" fill="currentColor"/>
<rect x="3" y="11" width="10" height="6" fill="currentColor"/>
</svg>
