<svg width="24" height="24" viewBox="0 0 24 24" fill="none" xmlns="http://www.w3.org/2000/svg">
<path fill-rule="evenodd" clip-rule="evenodd" d="M22 3V2H2V3L22 3ZM17 6V7H16V6H17ZM18 8V7H17V8H18ZM19 9V8H18V9H19ZM20 10V9H19V10H20ZM21 11V10H20V11H19V13H20V14H19V15H18V16H17V17H16V18H17V17H18V16H19V15H20V14H21V13H22V11H21ZM21 11H20V13H21V11ZM3 13L3 11H4L4 13H3ZM4 14H3L3 13H2V11H3V10H4V11H5V13H4L4 14ZM5 15H4V14H5V15ZM6 16H5V15H6V16ZM7 17H6V16H7V17ZM7 17H8V18L7 18V17ZM5 9H4V10H5V9ZM6 8H5V9H6V8ZM7 7H8V6H7V7ZM7 7H6V8H7V7ZM7 13V11H6V13H7ZM9 11V13H8V11H9ZM11 13V11H10V13H11ZM14 11V13H13V11H14ZM16 13V11H15V13H16ZM18 11V13H17V11H18ZM22 21V22H2V21H22Z" fill="currentColor"/>
</svg>
