<svg width="24" height="24" viewBox="0 0 24 24" fill="none" xmlns="http://www.w3.org/2000/svg">
<path fill-rule="evenodd" clip-rule="evenodd" d="M16 4H17H21H22V20H21H17H16V4ZM17 16V17H18V18H17V19H18V18H19V19H20V18H21V17H20V16H21V15H20V14H21V13H20V12H21V11H20V10H21V9H20V8H21V7H20V6H21V5H20V6H19V5H18V6H17V7H18V8H17V9H18V10H17V11H18V12H17V13H18V14H17V15H18V16H17ZM19 16H18V17H19V18H20V17H19V16ZM19 15H18V14H19V15ZM19 13H18V12H19V13ZM19 11H18V10H19V11ZM19 9H18V8H19V9ZM19 7H18V6H19V7ZM19 7V8H20V7H19ZM19 9H20V10H19V9ZM19 11H20V12H19V11ZM19 13H20V14H19V13ZM19 15H20V16H19V15ZM10 10H9V20H10H14H15V10H14H10ZM10 17V16H11V17H10ZM12 17H11V18H10V19H11V18H12V19H13V18H14V17H13V16H14V15H13V14H14V13H13V12H14V11H13V12H12V11H11V12H10V13H11V14H10V15H11V16H12V17ZM12 15H13V16H12V15ZM12 14V15H11V14H12ZM12 13H13V14H12V13ZM12 13V12H11V13H12ZM12 17H13V18H12V17ZM2 14H3H7H8V20H7H3H2V14ZM3 19H4V18H5V19H6V18H7V17H6V16H7V15H6V16H5V15H4V16H3V17H4V18H3V19ZM5 17V18H6V17H5ZM5 17H4V16H5V17Z" fill="currentColor"/>
</svg>
