<svg width="24" height="24" viewBox="0 0 24 24" fill="none" xmlns="http://www.w3.org/2000/svg">
<path fill-rule="evenodd" clip-rule="evenodd" d="M2 4H3V6H4V7H5V8H6V9H7V10H8V11H9V12H10V13H11V14H12V15H13V16H14V17H15V18H16V19H17V20H2V4ZM20 17H19V16H18V15H17V14H16V13H15V12V11H16V10H17V9H18V8H19V7H20V6H19V7H18V8H17V9H16V10H15V11H14H13V10H12V9H11V8H10V7H9V6H8V5H7V4H22V19H21V18H20V17Z" fill="currentColor"/>
<rect x="2" y="2" width="1" height="1" fill="currentColor"/>
<rect x="3" y="3" width="1" height="1" fill="currentColor"/>
<rect x="4" y="4" width="1" height="1" fill="currentColor"/>
<rect x="5" y="5" width="1" height="1" fill="currentColor"/>
<rect x="6" y="6" width="1" height="1" fill="currentColor"/>
<rect x="7" y="7" width="1" height="1" fill="currentColor"/>
<rect x="8" y="8" width="1" height="1" fill="currentColor"/>
<rect x="9" y="9" width="1" height="1" fill="currentColor"/>
<rect x="10" y="10" width="1" height="1" fill="currentColor"/>
<rect x="11" y="11" width="1" height="1" fill="currentColor"/>
<rect x="12" y="12" width="1" height="1" fill="currentColor"/>
<rect x="13" y="13" width="1" height="1" fill="currentColor"/>
<rect x="14" y="14" width="1" height="1" fill="currentColor"/>
<rect x="15" y="15" width="1" height="1" fill="currentColor"/>
<rect x="16" y="16" width="1" height="1" fill="currentColor"/>
<rect x="17" y="17" width="1" height="1" fill="currentColor"/>
<rect x="18" y="18" width="1" height="1" fill="currentColor"/>
<rect x="19" y="19" width="1" height="1" fill="currentColor"/>
<rect x="20" y="20" width="1" height="1" fill="currentColor"/>
<rect x="21" y="21" width="1" height="1" fill="currentColor"/>
</svg>
