<svg width="24" height="24" viewBox="0 0 24 24" fill="none" xmlns="http://www.w3.org/2000/svg">
<path fill-rule="evenodd" clip-rule="evenodd" d="M11 4H13V5H11V4ZM10 5V4H11V3H13V4H14V5H13V6H11V5H10ZM9 6V5H10V6H9ZM8 7V6H9V7H8ZM7 8V7H8V8H7ZM6 9V8H7V9H6ZM6 9V10H5V9H6ZM15 6V5H14V6H15ZM16 7V6H15V7H16ZM17 8V7H16V8H17ZM18 9V8H17V9H18ZM18 9H19V10H18V9ZM3 15H4V20H20V15H21V21H20H4H3V15ZM11 8H13V7H11V8ZM13 10H11V9H13V10ZM11 12H13V11H11V12ZM13 14H11V13H13V14ZM11 16H13V15H11V16ZM13 18H11V17H13V18Z" fill="currentColor"/>
</svg>
