<svg width="24" height="24" viewBox="0 0 24 24" fill="none" xmlns="http://www.w3.org/2000/svg">
<path fill-rule="evenodd" clip-rule="evenodd" d="M12.9998 2H10.9998V8H12.9998V2ZM12.9998 16H10.9998V22H12.9998V16ZM21.9996 11V13L15.9996 13V11H21.9996ZM7.99951 13V11H1.99951V13L7.99951 13ZM14.9995 6.99997H16.9995V8.99997H14.9995V6.99997ZM18.9994 4.99997H16.9994V6.99997H18.9994V4.99997ZM8.99951 6.99997H6.99951V8.99997H8.99951V6.99997ZM4.99961 4.99997H6.99961V6.99997H4.99961V4.99997ZM14.9995 17H16.9994V18.9999H18.9994V16.9999H16.9995V15H14.9995V17ZM6.99951 16.9999V15H8.99951V17H6.99961V18.9999H4.99961V16.9999H6.99951Z" fill="currentColor"/>
</svg>
