<svg width="24" height="24" viewBox="0 0 24 24" fill="none" xmlns="http://www.w3.org/2000/svg">
<path fill-rule="evenodd" clip-rule="evenodd" d="M18 2H16V4.00002H14.0001V9.99995V10V14H16.0001V11.9999H18V10H20V8.00002H21.9999V6.00002H20H19.9999V4.00002H18V2ZM3.99988 4.00002H9.99988V6.00002H3.99988V20H17.9999V14H19.9999V22H19.9999V22H1.99988V22V20V6.00002V4.00002H3.99988ZM8 12H6.00006V16V18V18H12.0001V16L13.9999 16V12V6.00002H11.9999V8.00002H9.99994V9.99994H8V12ZM9.99994 15.9999V16H8.00006V15.9999H9.99994Z" fill="currentColor"/>
</svg>
