<svg width="24" height="24" viewBox="0 0 24 24" fill="none" xmlns="http://www.w3.org/2000/svg">
<g clip-path="url(#clip0_4_2842)">
<path fill-rule="evenodd" clip-rule="evenodd" d="M22 0H24V2H22V0ZM22 2V4H20V2H22ZM8 6H16V8H20V10H22V12H24V14H22V16H20V18H16V20H8V18H4V16H2V14H0V12H2V10H4V8H8V6ZM14 11H10V15H14V11ZM22 22H20V20H22V22ZM22 22H24V24H22V22ZM4 2H2V0H0V2H2V4H4V2ZM2 22H4V20H2V22ZM2 22V24H0V22H2Z" fill="currentColor"/>
</g>
<defs>
<clipPath id="clip0_4_2842">
<rect width="24" height="24" fill="white"/>
</clipPath>
</defs>
</svg>
