<svg width="24" height="24" viewBox="0 0 24 24" fill="none" xmlns="http://www.w3.org/2000/svg">
<rect x="11" y="10" width="2" height="2" fill="currentColor"/>
<path fill-rule="evenodd" clip-rule="evenodd" d="M5 2H3V4H5V6H7V8H9V10H11V12H13V14H15V16H17V18H19V20H21V22H23V20H21V18H19V16H17V14H15V12H13V10H11V8H9V6H7V4H5V2Z" fill="currentColor"/>
<path fill-rule="evenodd" clip-rule="evenodd" d="M13 2H7V4H5V2H3V4H5V6H3V22H13H19V20H21V18H19V16H21V10V8H19V6H17V4H15V2H13ZM11 8H13V4H15V6H17V8H19V10H15V12H13V10H11V8ZM9 8H11V6H9V4H7V6H5V8H7V10H9V12H11V14H13V16H15V18H17V20H19V18H17V16H19V14H17V12H15V14H13V12H11V10H9V8ZM15 14V16H17V14H15ZM9 8H7V6H9V8Z" fill="currentColor"/>
</svg>
