<svg width="24" height="24" viewBox="0 0 24 24" fill="none" xmlns="http://www.w3.org/2000/svg">
<path fill-rule="evenodd" clip-rule="evenodd" d="M5.00024 14V8H7V10H9V12H11V14H13V16H5V16H15V18H17V18H3V16V12H5V14L5.00024 14ZM17 16V18H19V18V20H21V22H23V20H21L21 18L21 18H19L19 16L19 16H21L21 12H19.0001V6H17.0002H17.0001L11 6H19.0002V4H14.0001V2H10.0001V4H9V6H7V4H5.00024H5V2H3V4H5V6L5.00024 6L7 6V8H9V10H11V12H13V14H15V16H17V16ZM17 14H15V12H17V14ZM13 10H15V12H13V10ZM11 8V6H9V8H11ZM11 8H13V10H11V8ZM17 14V16H19V14H17ZM8 20V22H10V20H8ZM16 20V22H14.0001H14H10.0001V20H14H14.0001H16Z" fill="currentColor"/>
</svg>
