<svg width="24" height="24" viewBox="0 0 24 24" fill="none" xmlns="http://www.w3.org/2000/svg">
<path fill-rule="evenodd" clip-rule="evenodd" d="M23 1H22V2H21V3H20V4H21V3H22V2H23V1ZM8 5H16V6H8V5ZM6 7V6H8V7H6ZM5 8V7H6V8H5ZM4 9V8H5V9H4ZM3 10V9H4V10H3ZM2 11V10H3V11H2ZM2 13H1V11H2V13ZM3 14H2V13H3V14ZM4 15H3V14H4V15ZM5 16H4V15H5V16ZM6 17H5V16H6V17ZM8 18H6V17H8V18ZM16 18V19H8V18H16ZM18 17V18H16V17H18ZM19 16V17H18V16H19ZM20 15V16H19V15H20ZM21 14V15H20V14H21ZM22 13V14H21V13H22ZM22 11H23V13H22V11ZM21 10H22V11H21V10ZM20 9H21V10H20V9ZM19 8H20V9H19V8ZM18 7H19V8H18V7ZM18 7V6H16V7H18ZM11 10H13V11H11V10ZM11 13H10V11H11V13ZM13 13V14H11V13H13ZM13 13H14V11H13V13ZM22 23H23V22H22V21H21V20H20V21H21V22H22V23ZM1 1H2V2H1V1ZM3 3H2V2H3V3ZM3 3H4V4H3V3ZM2 23H1V22H2V23ZM3 21H2V22H3V21ZM3 21V20H4V21H3Z" fill="currentColor"/>
</svg>
