<svg width="24" height="24" viewBox="0 0 24 24" fill="none" xmlns="http://www.w3.org/2000/svg">
<path fill-rule="evenodd" clip-rule="evenodd" d="M22 3H2V4V20V21H22V20V4V3ZM21 4H20V5H19V4H18V5H17V4H16V5H15V4H14V5H13V4H12V5H11V4H10V5H9V4H8V5H7V4H6V5H5V4H4V5H3V6H4V7H3V8H4V7H5V8H6V7H7V8H8V7H9V8H10V7H11V8H12V7H13V8H14V7H15V8H16V7H17V8H18V7H19V8H20V7H21V6H20V5H21V4ZM19 6V5H18V6H17V5H16V6H15V5H14V6H13V5H12V6H11V5H10V6H9V5H8V6H7V5H6V6H5V5H4V6H5V7H6V6H7V7H8V6H9V7H10V6H11V7H12V6H13V7H14V6H15V7H16V6H17V7H18V6H19ZM19 6V7H20V6H19ZM21 9H16V14H21V9ZM9 9V14H15V9H9ZM8 9H3V14H8V9ZM3 20V15H8V20H3ZM9 20V15H15V20H9ZM16 20V15H21V20H16Z" fill="currentColor"/>
</svg>
