<svg width="24" height="24" viewBox="0 0 24 24" fill="none" xmlns="http://www.w3.org/2000/svg">
<path fill-rule="evenodd" clip-rule="evenodd" d="M2 2H3V3H2V2ZM4 4H3V3H4V4ZM5 5H4V4H5V5ZM6 6H5V5H6V6ZM7 7H6V6H7V7ZM8 8H7V7H8V8ZM9 9H8V8H9V9ZM10 10H9V9H10V10ZM11 11H10V10H11V11ZM12 12H11V11H12V12ZM13 13H12V12H13V13ZM14 14H13V13H14V14ZM15 15H14V14H15V15ZM16 16H15V15H16V16ZM17 17H16V16H17V17ZM18 18H17V17H18V18ZM19 19H18V18H19V19ZM20 20H19V19H20V20ZM21 21H20V20H21V21ZM21 21H22V22H21V21ZM10 2H11H12H13V4H17V5H13H12H11H10H8V4H10V2ZM18 7H17V5H18V7ZM19 15H18V7H19V15ZM19 15H20V16H19V15ZM11 4V3H12V4H11ZM5 9H6V15H5V9ZM4 16V15H5V16H4ZM4 16V17H15V18H4H3V16H4ZM9 19H8V20H9V21H10V22H14V21H15V20H16V19H15V20H14V21H10V20H9V19Z" fill="currentColor"/>
</svg>
