<svg width="24" height="24" viewBox="0 0 24 24" fill="none" xmlns="http://www.w3.org/2000/svg">
<path fill-rule="evenodd" clip-rule="evenodd" d="M12 5H13H14V6H13V10H12H6V9H12V5ZM5 11V10H6V11H5ZM6 16V17H5V18H4V11H5V16H6ZM7 15V16H6V15H7ZM14 18V19H13H12V15H7V14H13V15V18H14ZM15 17V18H14V17H15ZM16 16V17H15V16H16ZM17 15V16H16V15H17ZM18 14V15H17V14H18ZM19 13V14H18V13H19ZM19 11H20V13H19V11ZM18 10H19V11H18V10ZM17 9H18V10H17V9ZM16 8H17V9H16V8ZM15 7H16V8H15V7ZM15 7V6H14V7H15Z" fill="currentColor"/>
</svg>
