<svg width="24" height="24" viewBox="0 0 24 24" fill="none" xmlns="http://www.w3.org/2000/svg">
<path fill-rule="evenodd" clip-rule="evenodd" d="M10 4H16V5H10V4ZM9 6V5H10V6H9ZM8 7V6H9V7H8ZM9 9V8H8V7H7V8H4V9H2V10H1V12H0V18H1V19H2V20H9V19H2V18H1V12H2V10H4V9H9ZM10 10H9V9H10V10ZM10 10H11V12H10V10ZM18 6H16V5H18V6ZM19 7H18V6H19V7ZM20 9H19V7H20V9ZM22 12V11H21V9H20V11H18V12H17V13H18V12H22ZM23 13H22V12H23V13ZM23 18V13H24V18H23ZM22 19V18H23V19H22ZM22 19V20H16V19H22ZM13 21V16H14V17H15V18H16V17H15V16H14V15H13V14H12V15H11V16H10V17H9V18H10V17H11V16H12V21H13Z" fill="currentColor"/>
</svg>
