<svg width="24" height="24" viewBox="0 0 24 24" fill="none" xmlns="http://www.w3.org/2000/svg">
<path d="M8 2H17V3H8V2Z" fill="currentColor"/>
<path d="M6 4V3H8V4H6Z" fill="currentColor"/>
<path d="M5 5V4H6V5H5Z" fill="currentColor"/>
<path d="M4 7V5H5V7H4Z" fill="currentColor"/>
<path d="M4 17H3V7H4V17Z" fill="currentColor"/>
<path d="M5 19H4V17H5V19Z" fill="currentColor"/>
<path d="M6 20H5V19H6V20Z" fill="currentColor"/>
<path d="M7 21H6V20H7V21Z" fill="currentColor"/>
<path d="M12 21V22H7V21H12Z" fill="currentColor"/>
<path d="M14 20V21H12V20H14Z" fill="currentColor"/>
<path d="M14 19H15V20H14V19Z" fill="currentColor"/>
<path d="M12 18V19H14V18H12Z" fill="currentColor"/>
<path d="M11 17V18H12V17H11Z" fill="currentColor"/>
<path d="M11 16V17H10V16H11Z" fill="currentColor"/>
<path d="M17 15V16H11V15H17Z" fill="currentColor"/>
<path d="M19 14V15H17V14H19Z" fill="currentColor"/>
<path d="M20 12V14H19V12H20Z" fill="currentColor"/>
<path d="M20 6H21V12H20V6Z" fill="currentColor"/>
<path d="M19 4H20V6H19V4Z" fill="currentColor"/>
<path d="M19 4V3H17V4H19Z" fill="currentColor"/>
<path d="M8 7H7V12H8V7Z" fill="currentColor"/>
<path d="M10 7V6H8V7H10Z" fill="currentColor"/>
<path d="M11 8V7H10V8H11Z" fill="currentColor"/>
<path d="M13 8V9H11V8H13Z" fill="currentColor"/>
<path d="M14 7V8H13V7H14Z" fill="currentColor"/>
<path d="M16 7H14V6H16V7Z" fill="currentColor"/>
<path d="M16 7H17V12H16V7Z" fill="currentColor"/>
</svg>
