<svg width="24" height="24" viewBox="0 0 24 24" fill="none" xmlns="http://www.w3.org/2000/svg">
<path fill-rule="evenodd" clip-rule="evenodd" d="M21 2H22V3H21V2ZM20 4V3H21V4H20ZM19 5V4H20V5H19ZM18 6V5H19V6H18ZM17 7V6H18V7H17ZM16 8V7H17V8H16ZM15 9V8H16V9H15ZM14 10V9H15V10H14ZM13 11V10H14V11H13ZM13 13V12V11H12H11V10H10V9H9V8H8V7H7V6H6V5H5V4H4V3H3V2H2V3H3V4H4V5H5V6H6V7H7V8H8V9H9V10H10V11H11V12V13H10V14H9H3V15H2V21H3V22H9V21H10V15V14H11V13H12H13ZM14 14H13V13H14V14ZM21 15V14H15H14V15V21H15V22H21V21H22V15H21ZM21 15V21H15V15H21ZM9 21H3V15H9V21Z" fill="currentColor"/>
</svg>
