<svg width="24" height="24" viewBox="0 0 24 24" fill="none" xmlns="http://www.w3.org/2000/svg">
<path fill-rule="evenodd" clip-rule="evenodd" d="M6 3H7V4H6V3ZM6 5H7V6H6V5ZM19 17H18V18H19V17ZM10 3H11V4H10V3ZM11 17H10V18H11V17ZM8 3H9V4H8V3ZM9 17H8V18H9V17ZM6 17H7V18H6V17ZM13 3H12V4H13V3ZM12 17H13V18H12V17ZM15 3H14V4H15V3ZM14 17H15V18H14V17ZM17 3H16V4H17V3ZM16 17H17V18H16V17ZM19 3H18V4H19V3ZM20 3H21V4H20V3ZM21 5H20V6H21V5ZM20 7H21V8H20V7ZM7 7H6V8H7V7ZM20 9H21V10H20V9ZM7 9H6V10H7V9ZM20 11H21V12H20V11ZM7 11H6V12H7V11ZM20 13H21V14H20V13ZM7 13H6V14H7V13ZM20 15H21V16H20V15ZM7 15H6V16H7V15ZM20 17H21V18H20V17ZM16 21V20V19H15V20H4V9H5V8H4H3V21H4H16Z" fill="currentColor"/>
</svg>
