<svg width="24" height="24" viewBox="0 0 24 24" fill="none" xmlns="http://www.w3.org/2000/svg">
<path fill-rule="evenodd" clip-rule="evenodd" d="M7 2H13V3H7V2ZM5 4V3H7V4H5ZM4 5V4H5V5H4ZM3 7V5H4V7H3ZM3 13H2V7H3V13ZM4 15H3V13H4V15ZM5 16H4V15H5V16ZM7 17H5V16H7V17ZM13 17V18H7V17H13ZM15 16H13V17H15V18H16V19H17V20H18V21H19V22H21H22V19H21V18H20V17H19V16H18V15H17V13H18V7H17V5H16V4H15V3H13V4H15V5H16V7H17V13H16V15H15V16ZM15 16V17H16V18H17V19H18V20H19V21H21V19H20V18H19V17H18V16H17V15H16V16H15ZM15 11V10H6V11H15Z" fill="currentColor"/>
</svg>
