<svg width="24" height="24" viewBox="0 0 24 24" fill="none" xmlns="http://www.w3.org/2000/svg">
<path fill-rule="evenodd" clip-rule="evenodd" d="M19 1H18V2H19V3H20V4H21V5H13V6H21V7H20V8H19V9H18V10H19V9H20V8H21V7H22V6H23V5H22V4H21V3H20V2H19V1ZM11 3H2V4V20V21H22V20V12H21V20H3V4H11V3ZM4 18H5V19H4V18ZM6 17H5V18H6V17ZM7 16V17H6V16H7ZM8 15H7V16H8V15ZM9 14V15H8V14H9ZM10 13H9V14H10V13ZM11 12V13H10V12H11ZM12 12V11H11V12H12ZM13 13V12H12V13H13ZM14 14H13V13H14V14ZM15 15V14H14V15H15ZM16 15H15V16H16V17H17V18H18V19H19V18H18V17H17V16H16V15ZM17 14V15H16V14H17ZM18 13V14H17V13H18ZM19 13V12H18V13H19ZM19 13H20V14H19V13ZM8 6H6V7H5V9H6V10H8V9H9V7H8V6ZM8 7V9H6V7H8Z" fill="currentColor"/>
</svg>
