<svg width="24" height="24" viewBox="0 0 24 24" fill="none" xmlns="http://www.w3.org/2000/svg">
<path fill-rule="evenodd" clip-rule="evenodd" d="M7 2H6V6H7V3H17V6H18V2H17H7ZM7 22H6V17H7V21H17V17H18V22H17H7ZM16 10H17V11H22V12H17V13H16V12H15V11H16V10ZM18 14V13H17V14H18ZM19 15V14H18V15H19ZM19 15V16H20V15H19ZM18 9V10H17V9H18ZM19 8V9H18V8H19ZM19 8H20V7H19V8ZM7 10H8V11H9V12H8V13H7V12H2V11H7V10ZM7 9V10H6V9H7ZM5 8H6V9H5V8ZM5 8H4V7H5V8ZM6 13H7V14H6V13ZM5 15V14H6V15H5ZM5 15V16H4V15H5Z" fill="currentColor"/>
</svg>
