<svg width="24" height="24" viewBox="0 0 24 24" fill="none" xmlns="http://www.w3.org/2000/svg">
<path fill-rule="evenodd" clip-rule="evenodd" d="M2 2H11V3H3V11H2V3V2ZM4 12H3V11H4V12ZM5 13H4V12H5V13ZM6 14H5V13H6V14ZM7 15H6V14H7V15ZM8 16H7V15H8V16ZM9 17H8V16H9V17ZM10 18H9V17H10V18ZM11 19H10V18H11V19ZM12 20H11V19H12V20ZM13 21H12V20H13V21ZM14 21V22H13V21H14ZM15 20V21H14V20H15ZM16 19V20H15V19H16ZM17 18V19H16V18H17ZM18 17V18H17V17H18ZM19 16V17H18V16H19ZM20 15V16H19V15H20ZM21 14V15H20V14H21ZM21 13H22V14H21V13ZM20 12H21V13H20V12ZM19 11H20V12H19V11ZM18 10H19V11H18V10ZM17 9H18V10H17V9ZM16 8H17V9H16V8ZM15 7H16V8H15V7ZM14 6H15V7H14V6ZM13 5H14V6H13V5ZM12 4H13V5H12V4ZM12 4V3H11V4H12ZM6 5H8V6H6V5ZM6 8H5V6H6V8ZM8 8H9V6H8V8ZM8 8H6V9H8V8Z" fill="currentColor"/>
</svg>
