<svg width="24" height="24" viewBox="0 0 24 24" fill="none" xmlns="http://www.w3.org/2000/svg">
<path fill-rule="evenodd" clip-rule="evenodd" d="M2 3H22V4V5H21V4H3V20H20V19H21V20H22V21H2V20V4V3ZM20 18V19H19V18H20ZM21 17H20V18H21V17ZM21 16V17H22V16H21ZM20 15H21V16H20V15ZM20 14V15H19V14H20ZM21 13V14H20V13H21ZM21 12H22V13H21V12ZM20 11H21V12H20V11ZM20 10V11H19V10H20ZM21 9V10H20V9H21ZM21 8H22V9H21V8ZM20 7H21V8H20V7ZM20 6V7H19V6H20ZM20 6H21V5H20V6ZM4 18H5V19H4V18ZM6 17H5V18H6V17ZM7 16V17H6V16H7ZM8 15H7V16H8V15ZM9 14V15H8V14H9ZM10 13H9V14H10V13ZM11 12V13H10V12H11ZM12 12V11H11V12H12ZM13 13V12H12V13H13ZM14 14H13V13H14V14ZM15 15V14H14V15H15ZM16 15H15V16H16V17H17V18H18V17H17V16H16V15ZM17 14V15H16V14H17ZM17 14H18V13H17V14ZM6 6H8V7H6V6ZM6 9H5V7H6V9ZM8 9V10H6V9H8ZM8 9H9V7H8V9Z" fill="currentColor"/>
</svg>
