<svg width="24" height="24" viewBox="0 0 24 24" fill="none" xmlns="http://www.w3.org/2000/svg">
<path fill-rule="evenodd" clip-rule="evenodd" d="M17 2H7V3H5V4H4V5H3V7H2V17H3V19H4V20H5V21H7V22H17V21H19V20H20V19H21V17H22V7H21V5H20V4H19V3H17V2ZM17 3V4H19V5H20V7H21V17H20V19H19V20H17V21H7V20H5V19H4V17H3V7H4V5H5V4H7V3H17ZM11 10H13V11H11V10ZM11 13H10V11H11V13ZM13 13V14H11V13H13ZM13 13H14V11H13V13ZM9 6H15V7H9V6ZM8 8V7H9V8H8ZM7 9V8H8V9H7ZM7 15V9H6V15H7ZM8 16V15H7V16H8ZM9 17H8V16H9V17ZM15 17V18H9V17H15ZM16 16V17H15V16H16ZM17 15V16H16V15H17ZM17 9H18V15H17V9ZM16 8H17V9H16V8ZM16 8V7H15V8H16Z" fill="currentColor"/>
</svg>
