<svg width="24" height="24" viewBox="0 0 24 24" fill="none" xmlns="http://www.w3.org/2000/svg">
<path fill-rule="evenodd" clip-rule="evenodd" d="M13 4H11V3H13V4ZM14 5H13V4H14V5ZM15 6H14V5H15V6ZM16 7H15V6H16V7ZM17 8H16V7H17V8ZM17 8H18V9H17V8ZM10 5V4H11V5H10ZM9 6V5H10V6H9ZM8 7V6H9V7H8ZM7 8V7H8V8H7ZM7 8V9H6V8H7ZM6 15H7V16H6V15ZM8 17H7V16H8V17ZM9 18H8V17H9V18ZM10 19H9V18H10V19ZM11 20H10V19H11V20ZM13 20V21H11V20H13ZM14 19V20H13V19H14ZM15 18V19H14V18H15ZM16 17V18H15V17H16ZM17 16V17H16V16H17ZM17 16V15H18V16H17ZM20 12H4V13H20V12Z" fill="currentColor"/>
</svg>
