<svg width="24" height="24" viewBox="0 0 24 24" fill="none" xmlns="http://www.w3.org/2000/svg">
<path fill-rule="evenodd" clip-rule="evenodd" d="M7 5H22H23V19H22H7V18H22V6H7V5ZM6 7V6H7V7H6ZM5 8V7H6V8H5ZM4 9V8H5V9H4ZM3 10V9H4V10H3ZM2 11V10H3V11H2ZM2 13H1V11H2V13ZM3 14H2V13H3V14ZM4 15H3V14H4V15ZM5 16H4V15H5V16ZM6 17H5V16H6V17ZM6 17V18H7V17H6ZM13 9H12V8H11V9H12V10H13V11H14V13H13V14H12V15H11V16H12V15H13V14H14V13H16V14H17V15H18V16H19V15H18V14H17V13H16V11H17V10H18V9H19V8H18V9H17V10H16V11H14V10H13V9Z" fill="currentColor"/>
</svg>
