<svg width="24" height="24" viewBox="0 0 24 24" fill="none" xmlns="http://www.w3.org/2000/svg">
<g clip-path="url(#clip0_43_465)">
<path fill-rule="evenodd" clip-rule="evenodd" d="M11 4H12V0H11V4ZM15 7V6H9V7H8V8H7V9H6V15H7V16H8V17H9V18H15V17H16V16H17V15H18V9H17V8H16V7H15ZM15 7V8H16V9H17V15H16V16H15V17H9V16H8V15H7V9H8V8H9V7H15ZM20 12V11H24V12H20ZM4 12V13H0V12H4ZM12 24H13V20H12V24ZM5 18H6V19H5V18ZM4 20V19H5V20H4ZM3 21V20H4V21H3ZM3 21V22H2V21H3ZM18 18H19V19H18V18ZM20 20H19V19H20V20ZM21 21H20V20H21V21ZM21 21H22V22H21V21ZM5 6H6V5H5V4H4V3H3V2H2V3H3V4H4V5H5V6ZM18 6H19V5H20V4H21V3H22V2H21V3H20V4H19V5H18V6Z" fill="currentColor"/>
</g>
<defs>
<clipPath id="clip0_43_465">
<rect width="24" height="24" fill="white"/>
</clipPath>
</defs>
</svg>
