<svg width="24" height="24" viewBox="0 0 24 24" fill="none" xmlns="http://www.w3.org/2000/svg">
<path fill-rule="evenodd" clip-rule="evenodd" d="M21 3H3V4V20V21H21V20V4V3ZM20 4H4V20H20V4ZM5 5H9V6V8V9H5V8V6V5ZM8 8V6H6V8H8ZM9 10H5V11V13V14H9V13V11V10ZM8 11V13H6V11H8ZM10 5H14V6V8V9H10V8V6V5ZM13 8V6H11V8H13ZM14 10H10V11V13V14H14V13V11V10ZM13 11V13H11V11H13ZM5 15H19V16V18V19H5V18V16V15ZM18 18V16H6V18H18ZM15 5H19V6V8V9H15V8V6V5ZM16 6H18V8H16V6ZM19 10H15V11V13V14H19V13V11V10ZM18 11H16V13H18V11Z" fill="currentColor"/>
</svg>
