<svg width="24" height="24" viewBox="0 0 24 24" fill="none" xmlns="http://www.w3.org/2000/svg">
<path fill-rule="evenodd" clip-rule="evenodd" d="M14 2H10V3H9V4H8V5H7V6H6V7H5V8H4V9H3V10H2V22H3H21H22V10H21V9H20V8H19V7H18V6H17V5H16V4H15V3H14V2ZM14 3V4H15V5H16V6H17V7H18V8H19V9H20V10H21V12H20V13H19V14H18V11V10H6V11V14H5V13H4V12H3V10H4V9H5V8H6V7H7V6H8V5H9V4H10V3H14ZM7 16H6V15H5V14H4V13H3V21H21V13H20V14H19V15H18V16H17V15V11H7V15V16ZM8 17V16H7V17H8ZM9 18V17H8V18H9ZM10 19V18H9V19H10ZM14 19H10V20H14V19ZM15 18H14V19H15V18ZM16 17H17V16H16V17ZM16 17H15V18H16V17ZM9 12H15V13H9V12ZM12 14H9V15H12V14Z" fill="currentColor"/>
</svg>
