<svg width="24" height="24" viewBox="0 0 24 24" fill="none" xmlns="http://www.w3.org/2000/svg">
<path fill-rule="evenodd" clip-rule="evenodd" d="M18 2H12V3H11V4H10V10H11V11H12V12H18V11H19V10H20V4H19V3H18V2ZM18 3V4H19V10H18V11H12V10H11V4H12V3H18ZM11 14H19V15H11V14ZM9 16V15H11V16H9ZM8 17V16H9V17H8ZM7 19V17H8V19H7ZM7 19V22H6V19H7ZM21 16H19V15H21V16ZM22 17H21V16H22V17ZM23 19H22V17H23V19ZM23 19H24V22H23V19ZM6 9H5V10H4V9H3V8H2V7H1V8H2V9H3V10H4V11H3V12H2V13H1V14H2V13H3V12H4V11H5V12H6V13H7V14H8V13H7V12H6V11H5V10H6V9ZM7 8H6V9H7V8ZM7 8H8V7H7V8Z" fill="currentColor"/>
</svg>
