<svg width="24" height="24" viewBox="0 0 24 24" fill="none" xmlns="http://www.w3.org/2000/svg">
<path fill-rule="evenodd" clip-rule="evenodd" d="M4 2H3V13H4V3H13V10H14H20V21H12V22H20H21V9H20V8H19V7H18V6H17V5H16V4H15V3H14V2H4ZM15 4V5H16V6H17V7H18V8H19V9H14V4H15ZM7 12H8V11H9V16H8V13H7V12ZM6 14V13H7V14H6ZM5 15V14H6V15H5ZM4 16V15H5V16H4ZM7 18H2V17H3V16H4V17H7V18ZM9 21V22H8V23H7V18H8V21H9ZM10 20V21H9V20H10ZM11 19V20H10V19H11ZM12 18V19H11V18H12ZM12 18H13V17H14V16H9V17H12V18Z" fill="currentColor"/>
</svg>
