<svg width="24" height="24" viewBox="0 0 24 24" fill="none" xmlns="http://www.w3.org/2000/svg">
<path fill-rule="evenodd" clip-rule="evenodd" d="M11 4H12V4.00003H13V5.00003H14V4.00003H13V3.00003H12V3H11V4ZM15 6H14V5H15V6ZM15 6H16V7H15V6ZM7.99997 8.00003V7.00003H8.99997V6.00003H9.99997V5.00003H11V4.00003H9.99997V5.00003H8.99997V6.00003H7.99997V7.00003H6.99997V8H6V9H7V8.00003H7.99997ZM7.99997 16V17H6.99997V16H6V15H7V16H7.99997ZM8.99997 18H7.99997V17H8.99997V18ZM9.99997 19V18H8.99997V19H9.99997ZM9.99997 19V20H11V19H9.99997ZM14 18H15V19H14V18ZM15 18H16V17H15V18ZM17 8.00003H16V7.00003H17V8.00003ZM17 8.00003H18V9.00003H17V8.00003ZM16 16H17V17H16V16ZM17 16H18V15H17V16ZM13 19H14V20H13V19ZM13 20V21H12V21H11V20H12V20H13ZM11 7V6H13V7H11ZM11 18V17H13V18H11ZM11 9V8H13V9H11ZM11 16V15H13V16H11ZM11 11V10H13V11H11ZM11 14V13H13V14H11Z" fill="currentColor"/>
</svg>
