<svg width="24" height="24" viewBox="0 0 24 24" fill="none" xmlns="http://www.w3.org/2000/svg">
<path fill-rule="evenodd" clip-rule="evenodd" d="M4 4H20V5V7V8V10V11V13V14V16V17V19V20H4V19V17V16V14V13V11V10V8V7V5V4ZM5 8V10H7V8H5ZM7 7H5V5H7V7ZM8 8V10H10V8H8ZM10 7H8V5H10V7ZM11 8V10H13V8H11ZM13 7H11V5H13V7ZM14 8V10H16V8H14ZM16 7H14V5H16V7ZM17 8V10H19V8H17ZM19 7H17V5H19V7ZM16 11H14V13H16V11ZM13 11H11V13H13V11ZM10 11H8V13H10V11ZM7 11H5V13H7V11ZM19 11H17V13H19V11ZM5 14V16H7V14H5ZM8 14V16H10V14H8ZM11 14V16H13V14H11ZM14 14V16H16V14H14ZM17 14V16H19V14H17ZM16 17H14V19H16V17ZM13 17H11V19H13V17ZM10 17H8V19H10V17ZM7 17H5V19H7V17ZM19 17H17V19H19V17Z" fill="currentColor"/>
</svg>
