<svg width="24" height="24" viewBox="0 0 24 24" fill="none" xmlns="http://www.w3.org/2000/svg">
<path fill-rule="evenodd" clip-rule="evenodd" d="M4 2H3V3H2V5H1V15H2V17H3V18H4V17H3V15H2V5H3V3H4V2ZM21 2H20V3H21V5H22V15H21V17H20V18H21V17H22V15H23V5H22V3H21V2ZM14 7H10V8H9V12H10V13H12V17H11V22H12V17H13V13H14V12H15V8H14V7ZM14 8V12H10V8H14ZM7 4H8V5H7V4ZM6 7V5H7V7H6ZM6 13H5V7H6V13ZM7 15H6V13H7V15ZM7 15H8V16H7V15ZM16 4H17V5H16V4ZM18 7H17V5H18V7ZM18 13H19V7H18V13ZM17 15H18V13H17V15ZM17 15V16H16V15H17Z" fill="currentColor"/>
</svg>
