<svg width="24" height="24" viewBox="0 0 24 24" fill="none" xmlns="http://www.w3.org/2000/svg">
<path fill-rule="evenodd" clip-rule="evenodd" d="M16 3H17V5H16V3ZM15 7V5H16V7H15ZM14 9V7H15V9H14ZM13 11V9H14V11H13ZM12 13V11H13V13H12ZM11 15V13H12V15H11ZM10 17V15H11V17H10ZM9 19V17H10V19H9ZM9 19V21H8V19H9ZM5 4H13V5H5V4ZM3 6V5H5V6H3ZM2 7V6H3V7H2ZM1 9V7H2V9H1ZM1 15H0V9H1V15ZM2 17H1V15H2V17ZM3 18H2V17H3V18ZM3 18H5V19H3V18ZM19 19H12V20H19V19ZM21 18H19V19H21V18ZM22 17H21V18H22V17ZM23 15H22V17H23V15ZM23 9V15H24V9H23ZM22 7H23V9H22V7ZM21 6H22V7H21V6ZM21 6H19V5H21V6ZM5 10H10V11H5V10ZM15 14H19V13H15V14ZM5 13H9V14H5V13ZM16 11H19V10H16V11Z" fill="currentColor"/>
</svg>
