<svg width="24" height="24" viewBox="0 0 24 24" fill="none" xmlns="http://www.w3.org/2000/svg">
<path fill-rule="evenodd" clip-rule="evenodd" d="M7 1H11H12H16V2H12V8H15H16V9H15H12V15H16V16H12V21H11V16H7V17H6V16V15V14H7V15H11V9H7V8H11V2H7V1ZM6 3V2H7V3H6ZM6 7H5V3H6V7ZM6 7V8H7V7H6ZM6 10H5V14H6V10ZM6 10H7V9H6V10ZM6 21H5V17H6V21ZM7 22H6V21H7V22ZM10 22V23H7V22H10ZM10 22H11V21H10V22ZM17 14V15H16V14H17ZM17 10H18V14H17V10ZM17 10V9H16V10H17ZM17 7V8H16V7H17ZM17 3H18V7H17V3ZM17 3V2H16V3H17Z" fill="currentColor"/>
</svg>
