<svg width="24" height="24" viewBox="0 0 24 24" fill="none" xmlns="http://www.w3.org/2000/svg">
<path fill-rule="evenodd" clip-rule="evenodd" d="M22 4H2V5V19V20H14V19H3V5H21V12H22V5V4ZM4 6H5V7H4V6ZM6 8H5V7H6V8ZM7 9H6V8H7V9ZM8 10H7V9H8V10ZM9 11H8V10H9V11ZM10 12H9V11H10V12ZM11 13H10V12H11V13ZM13 13V14H11V13H13ZM14 12V13H13V12H14ZM15 11V12H14V11H15ZM16 10V11H15V10H16ZM17 9V10H16V9H17ZM18 8V9H17V8H18ZM19 7V8H18V7H19ZM19 7V6H20V7H19ZM21 16H20V17H19V16H18V15H17V14H16V15H17V16H18V17H19V18H18V19H17V20H16V21H17V20H18V19H19V18H20V19H21V20H22V21H23V20H22V19H21V18H20V17H21V16ZM22 15H21V16H22V15ZM22 15H23V14H22V15Z" fill="currentColor"/>
</svg>
