<svg width="24" height="24" viewBox="0 0 24 24" fill="none" xmlns="http://www.w3.org/2000/svg">
<path fill-rule="evenodd" clip-rule="evenodd" d="M6 0H18V1H6V0ZM4 2H20V3H4V2ZM2 4H22V5V19V20H2V19V5V4ZM3 5H21V19H3V5ZM4 22V21H20V22H4ZM6 24V23H18V24H6ZM5 17H4V18H5V17ZM6 16V17H5V16H6ZM7 15H6V16H7V15ZM8 14V15H7V14H8ZM9 13H8V14H9V13ZM10 12V13H9V12H10ZM11 11H10V12H11V11ZM12 11H11V10H12V11ZM13 12H12V11H13V12ZM14 13V12H13V13H14ZM15 14H14V13H15V14ZM16 14H15V15H16V16H17V17H18V18H19V17H18V16H17V15H16V14ZM17 13H16V14H17V13ZM18 12H17V13H18V12ZM19 12H18V11H19V12ZM19 12V13H20V12H19ZM6 7H8V8H6V7ZM6 10H5V8H6V10ZM8 10H9V8H8V10ZM8 10H6V11H8V10Z" fill="currentColor"/>
</svg>
