<svg width="24" height="24" viewBox="0 0 24 24" fill="none" xmlns="http://www.w3.org/2000/svg">
<path fill-rule="evenodd" clip-rule="evenodd" d="M11.0221 5.16748H12.022V5.16751H13.022V6.16751H14.022V5.16751H13.022V4.16751H12.0221V4.16748H11.0221V5.16748ZM14.0221 7.16748H15.0221V8.16748H16.0221V7.16748H15.0221V6.16748H14.0221V7.16748ZM8.02197 8.16751V9.16751H7.02209V10.1675H6.02209V9.16748H7.02197V8.16751H8.02197ZM9.02197 7.16751V8.16751H8.02197V7.16751H9.02197ZM10.022 6.16751V7.16751H9.02197V6.16751H10.022ZM10.022 6.16751V5.16751H11.022V6.16751H10.022ZM16.022 9.16751H17.022V10.1675H18.022V9.16751H17.022V8.16751H16.022V9.16751ZM11.0221 13.1675V14.1675H13.0221V13.1675H11.0221ZM11.0221 8.16748V7.16748H13.0221V8.16748H11.0221ZM11.0221 15.1675V16.1675H13.0221V15.1675H11.0221ZM11.0221 10.1675V9.16748H13.0221V10.1675H11.0221ZM11.0221 17.1675V18.1675H13.0221V17.1675H11.0221ZM11.0221 20.1675V19.1675H13.0221V20.1675H11.0221ZM11.0221 11.1675V12.1675H13.0221V11.1675H11.0221Z" fill="currentColor"/>
</svg>
