<svg width="24" height="24" viewBox="0 0 24 24" fill="none" xmlns="http://www.w3.org/2000/svg">
<path fill-rule="evenodd" clip-rule="evenodd" d="M8 3H9V4H10V5H11V6H5V7H4V8H3V16H4V17H5V18H8V17H5V16H4V8H5V7H11V8H10V9H9V10H8V11H9V10H10V9H11V8H12V7H13V6H12V5H11V4H10V3H9V2H8V3ZM15 13H16V14H15V13ZM14 15V14H15V15H14ZM13 16V15H14V16H13ZM19 17H13V16H12V17H11V18H12V19H13V20H14V21H15V22H16V21H15V20H14V19H13V18H19V17ZM20 16V17H19V16H20ZM20 8H21V16H20V8ZM19 7V8H20V7H19ZM19 7V6H16V7H19Z" fill="currentColor"/>
</svg>
