<svg width="24" height="24" viewBox="0 0 24 24" fill="none" xmlns="http://www.w3.org/2000/svg">
<path fill-rule="evenodd" clip-rule="evenodd" d="M16 5H8V6H6V7H5V8H4V9H3V10H2V11H1V13H2V14H3V15H4V16H5V17H6V18H8V19H16V18H18V17H19V16H20V15H21V14H22V13H23V11H22V10H21V9H20V8H19V7H18V6H16V5ZM16 6V7H18V8H19V9H20V10H21V11H22V13H21V14H20V15H19V16H18V17H16V18H8V17H6V16H5V15H4V14H3V13H2V11H3V10H4V9H5V8H6V7H8V6H16ZM14 10H13V11H11V10H10V9H9V10H10V11H11V13H10V14H9V15H10V14H11V13H13V14H14V15H15V14H14V13H13V11H14V10ZM14 10H15V9H14V10Z" fill="currentColor"/>
</svg>
