<svg width="24" height="24" viewBox="0 0 24 24" fill="none" xmlns="http://www.w3.org/2000/svg">
<path fill-rule="evenodd" clip-rule="evenodd" d="M22 2H21H8H7V6H8V3H21V20H22V2ZM2 21V22H22V21H2ZM15 14H16V20H15V14ZM14 13H15V14H14V13ZM13 12H14V13H13V12ZM12 11H13V12H12V11ZM11 10H12V11H11V10ZM10 9H11V10H10V9ZM8 9V8H10V9H8ZM7 10V9H8V10H7ZM6 11V10H7V11H6ZM5 12V11H6V12H5ZM4 13V12H5V13H4ZM3 14V13H4V14H3ZM3 14V20H2V14H3ZM11 5H12V6H11V5ZM15 5H14V6H15V5ZM14 8H15V9H14V8ZM18 5H17V6H18V5ZM17 8H18V9H17V8ZM18 11H17V12H18V11ZM7 20V17V16H8H10H11V17V20H10V17H8V20H7Z" fill="currentColor"/>
</svg>
