<svg width="24" height="24" viewBox="0 0 24 24" fill="none" xmlns="http://www.w3.org/2000/svg">
<path fill-rule="evenodd" clip-rule="evenodd" d="M3 3H5V4H4V5H3V4V3ZM7 3H9V4H7V3ZM13 3H11V4H13V3ZM15 3H17V4H15V3ZM19 3H21V4V5H20V4H19V3ZM20 7H21V9H20V7ZM3 7H4V9H3V7ZM4 11H3V13H4V11ZM3 15H4V17H3V15ZM4 19H3V21H4H5V20H4V19ZM9 20H7V21H9V20ZM19 16H18V17H17V16H16V15H15V14H14V15H15V16H16V17H17V18H16V19H15V20H14V21H15V20H16V19H17V18H18V19H19V20H20V21H21V20H20V19H19V18H18V17H19V16ZM20 15H19V16H20V15ZM20 15H21V14H20V15Z" fill="currentColor"/>
</svg>
