<svg width="24" height="24" viewBox="0 0 24 24" fill="none" xmlns="http://www.w3.org/2000/svg">
<path fill-rule="evenodd" clip-rule="evenodd" d="M7 2H11V3H7V2ZM5 4V3H7V4H5ZM4 5V4H5V5H4ZM3 7V5H4V7H3ZM3 17H2V7H3V17ZM4 19H3V17H4V19ZM5 20H4V19H5V20ZM7 21H5V20H7V21ZM17 21V22H7V21H17ZM19 20V21H17V20H19ZM20 19V20H19V19H20ZM21 17V19H20V17H21ZM21 7H22V17H21V7ZM20 5H21V7H20V5ZM19 4H20V5H19V4ZM19 4H17V3H19V4ZM13 2H12V10H10V11V14V15H15V14V11V10H13V2ZM11 11H14V14H11V11ZM8 6H11V7H8V6ZM7 8V7H8V8H7ZM7 16H6V8H7V16ZM8 17H7V16H8V17ZM16 17V18H8V17H16ZM17 16V17H16V16H17ZM17 8V16H18V8H17ZM17 8H16V7H17V8Z" fill="currentColor"/>
</svg>
