<svg width="24" height="24" viewBox="0 0 24 24" fill="none" xmlns="http://www.w3.org/2000/svg">
<path fill-rule="evenodd" clip-rule="evenodd" d="M9 4H5V5H4V9H5V10H9V9H10V5H9V4ZM9 5V9H5V5H9ZM15 14V15H14V19H15V20H19V19H20V15H19V14H15ZM19 15V19H15V15H19ZM4 19H5V20H4V19ZM6 18H5V19H6V18ZM7 17V18H6V17H7ZM8 16H7V17H8V16ZM9 15V16H8V15H9ZM9 15V14H10V15H9ZM11 13V14H10V13H11ZM12 12H11V13H12V12ZM13 11V12H12V11H13ZM14 10H13V11H14V10ZM15 9V10H14V9H15ZM16 8H15V9H16V8ZM17 7V8H16V7H17ZM18 6H17V7H18V6ZM19 5V6H18V5H19ZM19 5V4H20V5H19Z" fill="currentColor"/>
</svg>
