<svg width="24" height="24" viewBox="0 0 24 24" fill="none" xmlns="http://www.w3.org/2000/svg">
<path fill-rule="evenodd" clip-rule="evenodd" d="M8 16H20V4H8V16ZM21 16V17H7V16V3H8H20H21V16ZM6 7H5V6H6V7ZM17 19H18V18H17V19ZM17 21H18V20H17V21ZM13 21H14V20H13V21ZM16 21H15V20H16V21ZM11 21H12V20H11V21ZM10 21H9V20H10V21ZM7 21H8V20H7V21ZM6 21H5V20H6V21ZM3 21H4V20H3V21ZM4 19H3V18H4V19ZM3 17H4V16H3V17ZM4 15H3V14H4V15ZM3 13H4V12H3V13ZM4 11H3V10H4V11ZM3 9H4V8H3V9ZM4 7H3V6H4V7Z" fill="currentColor"/>
</svg>
