<svg width="24" height="24" viewBox="0 0 24 24" fill="none" xmlns="http://www.w3.org/2000/svg">
<path fill-rule="evenodd" clip-rule="evenodd" d="M13 2H7V3H5V4H4V5H3V7H2V13H3V15H4V16H5V17H7V18H13V17H15V18H16V19H17V20H18V21H19V22H21H22V19H21V18H20V17H19V16H18V15H17V13H18V7H17V5H16V4H15V3H13V2ZM13 3V4H15V5H16V7H17V13H16V15H15V16H13V17H7V16H5V15H4V13H3V7H4V5H5V4H7V3H13ZM15 16H16V15H17V16H18V17H19V18H20V19H21V21H19V20H18V19H17V18H16V17H15V16ZM15 10V11H11V15H10V11H6V10H10V6H11V10H15Z" fill="currentColor"/>
</svg>
