<svg width="24" height="24" viewBox="0 0 24 24" fill="none" xmlns="http://www.w3.org/2000/svg">
<path fill-rule="evenodd" clip-rule="evenodd" d="M15 18V17H16V16H17V17H16V18H15ZM17 16V15H18V14H19V15H18V16H17ZM6 14V15H7V16H6V15H5V14H6ZM8.00003 8H7.00003V9H6.00003V10H5.00003V11H4.00003V10H5.00003V9H6.00003V8H7.00003V7H8V6.00003H9V7.00003H8.00003V8ZM16 8H17V7H16V6.00003H15V7.00003H16V8ZM18 9H17V8H18V9ZM19 10V9H18V10H19ZM19 10V11H20V10H19ZM8.00003 16V17H9.00003V18H8.00003V17H7.00003V16H8.00003ZM19 14V13H20V12H20V11H21V12H21V13H20V14H19ZM5.00003 13V14H4.00003V13H3.00003V12H3V11H4V12H4.00003V13H5.00003ZM17 11H18V13H17V11ZM6 11H7V13H6V11ZM15 11H16V13H15V11ZM8 11H9V13H8V11ZM13 11H14V13H13V11ZM10 11H11V13H10V11Z" fill="currentColor"/>
</svg>
