<svg width="24" height="24" viewBox="0 0 24 24" fill="none" xmlns="http://www.w3.org/2000/svg">
<path fill-rule="evenodd" clip-rule="evenodd" d="M6 2H12V3H6V2ZM5 4V3H6V4H5ZM5 10H4V4H5V10ZM6 11H5V10H6V11ZM12 11V12H6V11H12ZM13 10V11H12V10H13ZM13 4H14V10H13V4ZM13 4V3H12V4H13ZM13 14H5V15H3V16H2V17H1V19H0V22H1V19H2V17H3V16H5V15H13V16H15V17H16V19H17V22H18V19H17V17H16V16H15V15H13V14ZM16 2H20V3H16V2ZM21 4H20V3H21V4ZM21 10V4H22V10H21ZM20 11V10H21V11H20ZM20 11V12H16V11H20ZM19 14H17V15H19V16H21V17H22V19H23V22H24V19H23V17H22V16H21V15H19V14Z" fill="currentColor"/>
</svg>
