<svg width="24" height="24" viewBox="0 0 24 24" fill="none" xmlns="http://www.w3.org/2000/svg">
<path fill-rule="evenodd" clip-rule="evenodd" d="M19 0H18V1H17V2H16V3H15V4H14V5H13V6H12V7H17V12H18V11H19V10H20V9H21V8H22V7H23V6H24V5H19V0ZM18 2H17V3H16V4H15V5H14V6H17V7H18V10H19V9H20V8H21V7H22V6H19V5H18V2ZM11 3H2V4V20V21H22V20V12H21V20H3V4H11V3ZM4 18H5V19H4V18ZM6 17H5V18H6V17ZM7 16V17H6V16H7ZM8 15H7V16H8V15ZM9 14V15H8V14H9ZM10 13V14H9V13H10ZM11 12H10V13H11V12ZM12 12H11V11H12V12ZM13 13H12V12H13V13ZM14 14V13H13V14H14ZM15 15H14V14H15V15ZM16 15H15V16H16V17H17V18H18V19H19V18H18V17H17V16H16V15ZM16 15V14H17V15H16ZM6 6H8V7H6V6ZM6 9H5V7H6V9ZM8 9V10H6V9H8ZM8 9H9V7H8V9Z" fill="currentColor"/>
</svg>
