<svg width="24" height="24" viewBox="0 0 24 24" fill="none" xmlns="http://www.w3.org/2000/svg">
<path fill-rule="evenodd" clip-rule="evenodd" d="M4 2H3V3H2V5H1V15H2V17H3V18H4V17H3V15H2V5H3V3H4V2ZM14 6H10V7H9V8H8V12H9V13H10V14H9V16H8V18H7V20H6V22H7V20H8V18H9V19H15V18H16V20H17V22H18V20H17V18H16V16H15V14H14V13H15V12H16V8H15V7H14V6ZM14 7V8H15V12H14V13H10V12H9V8H10V7H14ZM14 16V14H10V16H9V18H15V16H14ZM14 16V17H10V16H14ZM8 4H7V5H6V7H5V14H6V15H7V14H6V7H7V5H8V4ZM20 2H21V3H20V2ZM22 5H21V3H22V5ZM22 15V5H23V15H22ZM21 17V15H22V17H21ZM21 17V18H20V17H21ZM17 4H16V5H17V7H18V14H17V15H18V14H19V7H18V5H17V4Z" fill="currentColor"/>
</svg>
