<svg width="24" height="24" viewBox="0 0 24 24" fill="none" xmlns="http://www.w3.org/2000/svg">
<path fill-rule="evenodd" clip-rule="evenodd" d="M3 3H4V4H3V3ZM17 3H18V4H17V3ZM17 5H18V6H17V5ZM6 17H5V18H6V17ZM13 3H14V4H13V3ZM16 3H15V4H16V3ZM11 3H12V4H11V3ZM10 3H9V4H10V3ZM7 3H8V4H7V3ZM6 3H5V4H6V3ZM4 5H3V6H4V5ZM3 7H4V8H3V7ZM4 9H3V10H4V9ZM3 11H4V12H3V11ZM4 13H3V14H4V13ZM3 15H4V16H3V15ZM4 17H3V18H4V17ZM20 14V15H16V16H15V20H14V15V14H20ZM17 17H16V16H17V17ZM18 18H17V17H18V18ZM19 19H18V18H19V19ZM20 20H19V19H20V20ZM20 20H21V21H20V20ZM21 7V8V12H20V8H8V20H12V21H8H7V8V7H21Z" fill="currentColor"/>
</svg>
