<svg width="24" height="24" viewBox="0 0 24 24" fill="none" xmlns="http://www.w3.org/2000/svg">
<path fill-rule="evenodd" clip-rule="evenodd" d="M2 6H3V7H2V6ZM4 8H3V7H4V8ZM5 9H4V8H5V9ZM6 10H5V9H6V10ZM7 11H6V10H7V11ZM8 12H7V11H8V12ZM9 13H8V12H9V13ZM10 13V14H9V13H10ZM11 12V13H10V12H11ZM12 11V12H11V11H12ZM13 10V11H12V10H13ZM14 10H13V9H14V10ZM15 11H14V10H15V11ZM16 12H15V11H16V12ZM17 13H16V12H17V13ZM18 14H17V13H18V14ZM19 15H18V14H19V15ZM20 16H19V15H20V16ZM21 18H22V10H21V16H20V17H14V18H21Z" fill="currentColor"/>
</svg>
