<svg width="24" height="24" viewBox="0 0 24 24" fill="none" xmlns="http://www.w3.org/2000/svg">
<path fill-rule="evenodd" clip-rule="evenodd" d="M4 2H24V3V17V18H4V17V3V2ZM5 3H23V17H5V3ZM22 19H3V4H2V19V20H22V19ZM1 21H20V22H0V21V6H1V21ZM7 15H6V16H7V15ZM8 14V15H7V14H8ZM9 13H8V14H9V13ZM10 12V13H9V12H10ZM10 12H11V11H12V10H13V9H14V10H15V11H16V12H17V13H18V14H19V15H20V16H21V15H20V14H19V13H18V12H19V11H20V10H21V11H22V10H21V9H20V10H19V11H18V12H17V11H16V10H15V9H14V8H13V9H12V10H11V11H10V12ZM8 5H10V6H8V5ZM8 8H7V6H8V8ZM10 8H11V6H10V8ZM10 8H8V9H10V8Z" fill="currentColor"/>
</svg>
