<svg width="24" height="24" viewBox="0 0 24 24" fill="none" xmlns="http://www.w3.org/2000/svg">
<path fill-rule="evenodd" clip-rule="evenodd" d="M13 4H11V5H13V4ZM11 6H13V7H11V6ZM11 8H13V9H11V8ZM11 10H13V11H11V10ZM7 15V14H6V15H7ZM8 16V15H7V16H8ZM9 17V16H8V17H9ZM10 18H9V17H10V18ZM11 19H10V18H11V19ZM13 19H12H11V20H12H13V19ZM14 18H13V19H14V18ZM15 17H14V18H15V17ZM16 16H15V17H16V16ZM17 15V16H16V15H17ZM17 15V14H18V15H17ZM13 16H11V17H13V16ZM13 14H11V15H13V14ZM11 12H13V13H11V12Z" fill="currentColor"/>
</svg>
