<svg width="24" height="24" viewBox="0 0 24 24" fill="none" xmlns="http://www.w3.org/2000/svg">
<path fill-rule="evenodd" clip-rule="evenodd" d="M20 4H21V5H20V4ZM19 6V5H20V6H19ZM18 7V6H19V7H18ZM17 8V7H18V8H17ZM16 9V8H17V9H16ZM15 9H16V10H15V9ZM14 8H15V9H14V8ZM14 8H13V7H14V8ZM14 13H13V14H14V15H15V16H16V17H15V18H14V19H13V20H14V19H15V18H16V17H17V18H18V19H19V20H20V19H19V18H18V17H17V16H18V15H19V14H20V13H19V14H18V15H17V16H16V15H15V14H14V13ZM3 16H11V17H3V16ZM11 7H3V8H11V7Z" fill="currentColor"/>
</svg>
