<svg width="24" height="24" viewBox="0 0 24 24" fill="none" xmlns="http://www.w3.org/2000/svg">
<path fill-rule="evenodd" clip-rule="evenodd" d="M13 2H12H11V3H10V4H9V5H8V6H7V7H6V8H3V9V15V16H6V17H7V18H8V19H9V20H10V21H11V22H12H13V2ZM11 21V20H10V19H9V18H8V17H7V16H6V15H4V9H6V8H7V7H8V6H9V5H10V4H11V3H12V21H11ZM18 11H19V12V13H18H17V12V11H18ZM16 10H17V11H16V10ZM16 10H15V9H16V10ZM16 14V13H17V14H16ZM16 14H15V15H16V14ZM20 14H19V13H20V14ZM20 14H21V15H20V14ZM20 10V11H19V10H20ZM20 10V9H21V10H20Z" fill="currentColor"/>
</svg>
