<svg width="24" height="24" viewBox="0 0 24 24" fill="none" xmlns="http://www.w3.org/2000/svg">
<path fill-rule="evenodd" clip-rule="evenodd" d="M6 2H7V3H6V2ZM8 4H7V3H8V4ZM9 5H8V4H9V5ZM15 5H14V6H10V5H9V6H7V7H6V9H4V8H3V7H2V8H3V9H4V10H6V13H2V14H6V17H4V18H3V19H2V20H3V19H4V18H6V21H7V22H13V21H7V7H17V16H18V14H22V13H18V10H20V9H21V8H22V7H21V8H20V9H18V7H17V6H15V5ZM16 4V5H15V4H16ZM17 3V4H16V3H17ZM17 3V2H18V3H17ZM10 12H14V13H10V12ZM14 15H10V16H14V15ZM14 18H15V19H14V18ZM16 20H15V19H16V20ZM17 21H16V20H17V21ZM18 21V22H17V21H18ZM19 20V21H18V20H19ZM20 19V20H19V19H20ZM21 18H20V19H21V18ZM21 18V17H22V18H21Z" fill="currentColor"/>
</svg>
