<svg width="24" height="24" viewBox="0 0 24 24" fill="none" xmlns="http://www.w3.org/2000/svg">
<path fill-rule="evenodd" clip-rule="evenodd" d="M13 2H11V3H10V5H9V7H8V9H7V11H6V13H5V17H6V19H7V20H8V21H10V22H14V21H16V20H17V19H18V17H19V13H18V11H17V9H16V7H15V5H14V3H13V2ZM13 3V5H14V7H15V9H16V11H17V13H18V16H17V15H16V16H15V15H14V16H13V15H12V16H11V15H10V16H9V15H8V16H7V15H6V13H7V11H8V9H9V7H10V5H11V3H13ZM7 17H6V16H7V17ZM8 17V16H9V17H8ZM8 18V17H7V18H8ZM9 18H8V19H9V20H10V21H11V20H12V21H13V20H14V19H15V20H16V19H17V18H16V17H17V16H16V17H15V16H14V17H13V16H12V17H11V16H10V17H9V18ZM10 18V17H11V18H10ZM10 19H9V18H10V19ZM11 19V20H10V19H11ZM12 19V20H13V19H14V18H15V19H16V18H15V17H14V18H13V17H12V18H11V19H12ZM12 19V18H13V19H12Z" fill="currentColor"/>
</svg>
