<svg width="24" height="24" viewBox="0 0 24 24" fill="none" xmlns="http://www.w3.org/2000/svg">
<path fill-rule="evenodd" clip-rule="evenodd" d="M2 2H3H22V3V18H21H7V17H21V3H3V21H4V22H3H2V2ZM5 20V21H4V20H5ZM6 19V20H5V19H6ZM6 19H7V18H6V19ZM6 5H8V6H6V5ZM6 8H5V6H6V8ZM8 8V9H6V8H8ZM8 8H9V6H8V8ZM12 8H11V9H10V10H9V11H8V12H7V13H6V14H5V15H6V14H7V13H8V12H9V11H10V10H11V9H12V10H13V11H14V12H15V13H16V14H17V15H18V14H17V13H16V12H17V11H18V10H19V11H20V10H19V9H18V10H17V11H16V12H15V11H14V10H13V9H12V8Z" fill="currentColor"/>
</svg>
