<svg width="24" height="24" viewBox="0 0 24 24" fill="none" xmlns="http://www.w3.org/2000/svg">
<path fill-rule="evenodd" clip-rule="evenodd" d="M10 4H16V5H10V4ZM9 6V5H10V6H9ZM8 7V6H9V7H8ZM9 9V8H8V7H7V8H4V9H2V10H1V12H0V18H1V19H2V20H7V19H2V18H1V12H2V10H4V9H9ZM10 10H9V9H10V10ZM10 10H11V12H10V10ZM18 6H16V5H18V6ZM19 7H18V6H19V7ZM20 9H19V7H20V9ZM22 12V11H21V9H20V11H18V12H17V13H18V12H22ZM23 13H22V12H23V13ZM23 18V13H24V18H23ZM22 19V18H23V19H22ZM22 19V20H18V19H22ZM13 14V19H14V20H13V21H12V20H11V19H12V14H13ZM10 18V19H11V18H10ZM10 18H9V17H10V18ZM15 18V19H14V18H15ZM15 18V17H16V18H15Z" fill="currentColor"/>
</svg>
