<svg width="24" height="24" viewBox="0 0 24 24" fill="none" xmlns="http://www.w3.org/2000/svg">
<path fill-rule="evenodd" clip-rule="evenodd" d="M22 2H6V3H21V13H20V15H21V13H22V3V2ZM3 6H2V13H3V15H4V16H5V17H6V18H7V19H8V20H9V21H10V22H11V23H13V22H14V21H15V20H14V21H13V22H11V21H10V20H9V19H8V18H7V17H6V16H5V15H4V13H3V6ZM16 17V16H17V17H16ZM18 18H17V17H18V18ZM19 19H18V18H19V19ZM20 20H19V19H20V20ZM21 21V20H20V21H21ZM21 21V22H22V21H21ZM15 15V16H16V15H15ZM14 14H15V15H14V14ZM13 13V14H14V13H13ZM12 12V13H13V12H12ZM11 11V12H12V11H11ZM10 10V11H11V10H10ZM9 9V10H10V9H9ZM8 8V9H9V8H8ZM7 7V8H8V7H7ZM6 6V7H7V6H6ZM5 5V6H6V5H5ZM4 4V5H5V4H4ZM3 3V2H2V3H3ZM3 3V4H4V3H3Z" fill="currentColor"/>
</svg>
