<svg width="24" height="24" viewBox="0 0 24 24" fill="none" xmlns="http://www.w3.org/2000/svg">
<path fill-rule="evenodd" clip-rule="evenodd" d="M6 4H4V5V6H5V5H6V4ZM9 8V7H7V8V9H8V8H9ZM11 8V7H13V8H11ZM10 4H8V5H10V4ZM15 8V7H17V8H15ZM14 4H12V5H14V4ZM19 7H21V8V9H20V8H19V7ZM18 4H16V5H17V6H18V5V4ZM20 11H21V13H20V11ZM21 15H20V17H21V15ZM20 19H21V21H20H19V20H20V19ZM17 20V21H15V20H17ZM13 20H11V21H13V20ZM8 20H9V21H7V20V19H8V20ZM6 18V17H5V16H4V17V18H6ZM7 15H8V17H7V15ZM5 12H4V14H5V12ZM7 11H8V13H7V11ZM5 8H4V10H5V8Z" fill="currentColor"/>
</svg>
