<svg width="24" height="24" viewBox="0 0 24 24" fill="none" xmlns="http://www.w3.org/2000/svg">
<path fill-rule="evenodd" clip-rule="evenodd" d="M21 3H3V4V20V21H21V20V4V3ZM17 4H16V5H15V4H14V5H13V4H12V5H11V4H10V5H9V4H8V5H7V4H6V5H5V4H4V5H5V6H4V7H5V8H4V9H5V10H4V11H5V12H4V13H5V14H4V15H5V16H4V17H5V18H4V20H20V4H18V5H17V4ZM16 6H17V5H16V6ZM15 7H16V6H15V5H14V6H13V5H12V6H11V5H10V6H9V5H8V6H7V5H6V6H5V7H6V8H5V9H6V10H5V11H6V12H5V13H6V14H5V15H6V16H5V17H6V16H7V15H8V14H9V13H10V12H11V11H12V10H13V9H14V8H15V7ZM14 7H15V6H14V7ZM13 7H14V8H13V7ZM12 7H13V6H12V7ZM12 8H13V9H12V8ZM11 8H12V7H11V6H10V7H9V6H8V7H7V6H6V7H7V8H6V9H7V10H6V11H7V12H6V13H7V14H6V15H7V14H8V13H9V12H10V11H11V10H12V9H11V8ZM10 8V7H11V8H10ZM10 9H11V10H10V9ZM9 9H10V8H9V7H8V8H7V9H8V10H7V11H8V12H7V13H8V12H9V11H10V10H9V9ZM9 9V8H8V9H9ZM9 10V11H8V10H9Z" fill="currentColor"/>
</svg>
