<svg width="24" height="24" viewBox="0 0 24 24" fill="none" xmlns="http://www.w3.org/2000/svg">
<path d="M11 2H13V3H11V2Z" fill="currentColor"/>
<path d="M10 4V3H11V4H10Z" fill="currentColor"/>
<path d="M9 5V4H10V5H9Z" fill="currentColor"/>
<path d="M8 6V5H9V6H8Z" fill="currentColor"/>
<path d="M7 7V6H8V7H7Z" fill="currentColor"/>
<path d="M6 8V7H7V8H6Z" fill="currentColor"/>
<path d="M5 9V8H6V9H5Z" fill="currentColor"/>
<path d="M4 10V9H5V10H4Z" fill="currentColor"/>
<path d="M3 11V10H4V11H3Z" fill="currentColor"/>
<path d="M10 17V21H5V13H6V12H3V11H2V13H4V22H11V18H13V22H20V13H22V11H21V10H20V9H19V8H18V7H17V6H16V5H15V4H14V3H13V4H14V5H15V6H16V7H17V8H18V9H19V10H20V11H21V12H18V13H19V21H14V17H10Z" fill="currentColor"/>
</svg>
