<svg width="24" height="24" viewBox="0 0 24 24" fill="none" xmlns="http://www.w3.org/2000/svg">
<path fill-rule="evenodd" clip-rule="evenodd" d="M17 7H18V8H17V7ZM16 9V8H17V9H16ZM15 10V9H16V10H15ZM14 11V10H15V11H14ZM13 12V11H14V12H13ZM12 13V12H13V13H12ZM11 14V13H12V14H11ZM10 15V14H11V15H10ZM9 16V15H10V16H9ZM8 17V16H9V17H8ZM7 17H8V18H7V17ZM6 16H7V17H6V16ZM5 15H6V16H5V15ZM4 14H5V15H4V14ZM3 13H4V14H3V13ZM3 13H2V12H3V13ZM12 17H11V18H12V17ZM13 16H12V17H13V16ZM14 15H13V16H14V15ZM15 14H14V15H15V14ZM16 13H15V14H16V13ZM17 12H16V13H17V12ZM18 11H17V12H18V11ZM19 10H18V11H19V10ZM20 9H19V10H20V9ZM21 8H20V9H21V8ZM21 8V7H22V8H21Z" fill="currentColor"/>
</svg>
