<svg width="24" height="24" viewBox="0 0 24 24" fill="none" xmlns="http://www.w3.org/2000/svg">
<path fill-rule="evenodd" clip-rule="evenodd" d="M9 5H3V6H2V18H3V19H9V18H3V6H9V5ZM11 6H12V11H11V8H10V7H11V6ZM9 9V8H10V9H9ZM8 10V9H9V10H8ZM7 11V10H8V11H7ZM10 13H5V12H6V11H7V12H10V13ZM12 16V17H11V18H10V13H11V16H12ZM13 15V16H12V15H13ZM14 14V15H13V14H14ZM15 13V14H14V13H15ZM15 13H16V12H17V11H12V12H15V13ZM13 18V19H19V18H20V15H21H22V14V10V9H21H20V6H19V5H13V6H19V18H13ZM21 10H20V14H21V10Z" fill="currentColor"/>
</svg>
