<svg width="24" height="24" viewBox="0 0 24 24" fill="none" xmlns="http://www.w3.org/2000/svg">
<path fill-rule="evenodd" clip-rule="evenodd" d="M12 5H13H14V9H20H21V10V15H20H14V19H13H12V18H13V14H14H20V10H13V9V6H12V5ZM11 7V6H12V7H11ZM10 8V7H11V8H10ZM9 9V8H10V9H9ZM8 10V9H9V10H8ZM7 11V10H8V11H7ZM7 13H6V11H7V13ZM8 14H7V13H8V14ZM9 15H8V14H9V15ZM10 16H9V15H10V16ZM11 17H10V16H11V17ZM11 17V18H12V17H11ZM8 6H9V7H8V6ZM7 8V7H8V8H7ZM6 9V8H7V9H6ZM5 10V9H6V10H5ZM4 11V10H5V11H4ZM4 13H3V11H4V13ZM5 14H4V13H5V14ZM6 15H5V14H6V15ZM7 16H6V15H7V16ZM8 17H7V16H8V17ZM9 18H8V17H9V18ZM9 18H10V19H9V18ZM9 6V5H10V6H9Z" fill="currentColor"/>
</svg>
