<svg width="24" height="24" viewBox="0 0 24 24" fill="none" xmlns="http://www.w3.org/2000/svg">
<path fill-rule="evenodd" clip-rule="evenodd" d="M4 2H3V22H4V21H5V20H6V19H7V20H8V21H9V22H10V21H11V20H12H13V21H14V22H15V21H16V20H17V19H18V20H19V21H20V22H21V2H20V3H19V4H18V5H17V4H16V3H15V2H14V3H13V4H12H11V3H10V2H9V3H8V4H7V5H6V4H5V3H4V2ZM5 4V5H6V6H7V5H8V4H9V3H10V4H11V5H12H13V4H14V3H15V4H16V5H17V6H18V5H19V4H20V20H19V19H18V18H17V19H16V20H15V21H14V20H13V19H12H11V20H10V21H9V20H8V19H7V18H6V19H5V20H4V4H5ZM14 8V9H6V8H14ZM14 15V14H6V15H14ZM12 11V12H6V11H12ZM18 12V11H16V12H18ZM18 8V9H16V8H18ZM18 15V14H16V15H18Z" fill="currentColor"/>
</svg>
