<svg width="24" height="24" viewBox="0 0 24 24" fill="none" xmlns="http://www.w3.org/2000/svg">
<path fill-rule="evenodd" clip-rule="evenodd" d="M13 3H2V4V20V21H22V20V12H21V20H3V4H13V3ZM4 18H5V19H4V18ZM6 17H5V18H6V17ZM7 16V17H6V16H7ZM8 15H7V16H8V15ZM9 14V15H8V14H9ZM10 13H9V14H10V13ZM11 12V13H10V12H11ZM12 12V11H11V12H12ZM13 13V12H12V13H13ZM14 14H13V13H14V14ZM15 15V14H14V15H15ZM16 15H15V16H16V17H17V18H18V19H19V18H18V17H17V16H16V15ZM17 14V15H16V14H17ZM18 13V14H17V13H18ZM19 13V12H18V13H19ZM19 13H20V14H19V13ZM8 6H6V7H5V9H6V10H8V9H9V7H8V6ZM8 7V9H6V7H8ZM20 5H19V6H18V5H17V4H16V3H15V4H16V5H17V6H18V7H17V8H16V9H15V10H16V9H17V8H18V7H19V8H20V9H21V10H22V9H21V8H20V7H19V6H20V5ZM21 4H20V5H21V4ZM21 4H22V3H21V4Z" fill="currentColor"/>
</svg>
