<svg width="24" height="24" viewBox="0 0 24 24" fill="none" xmlns="http://www.w3.org/2000/svg">
<path fill-rule="evenodd" clip-rule="evenodd" d="M11 0H12V4H11V0ZM15 6H8V7H7V8H6V9H5V12H6V9H7V8H8V7H15V8H16V9H17V14H18V9H17V8H16V7H15V6ZM8 12H12V13H8V12ZM7 14V13H8V14H7ZM8 16V15H7V14H6V15H4V16H3V17H2V20H3V21H4V22H15V21H16V20H17V17H16V15H15V14H14V13H12V14H14V15H15V17H16V20H15V21H4V20H3V17H4V16H8ZM9 17H8V16H9V17ZM9 17H10V18H9V17ZM19 5H18V6H19V5ZM20 4H19V5H20V4ZM21 3H20V4H21V3ZM21 3V2H22V3H21ZM6 5H5V4H4V3H3V2H2V3H3V4H4V5H5V6H6V5ZM24 12V11H20V12H24Z" fill="currentColor"/>
</svg>
