<svg width="24" height="24" viewBox="0 0 24 24" fill="none" xmlns="http://www.w3.org/2000/svg">
<path fill-rule="evenodd" clip-rule="evenodd" d="M3 2H4V3H5V4H4V21H20V4H19V3H20V2H21V22H20H4H3V2ZM18 5V4H19V5H18ZM17 5H18V6H17V5ZM16 4H17V5H16V4ZM15 3H16V4H15V3ZM14 3V2H15V3H14ZM13 4V3H14V4H13ZM11 4H12H13V5H12H11V4ZM10 3H11V4H10V3ZM9 3V2H10V3H9ZM8 4V3H9V4H8ZM7 5V4H8V5H7ZM6 5H7V6H6V5ZM6 5V4H5V5H6ZM14 9V10H6V9H14ZM14 16V15H6V16H14ZM12 12V13H6V12H12ZM12 19V18H6V19H12ZM18 12V13H16V12H18ZM18 19V18H16V19H18ZM18 9V10H16V9H18ZM18 16V15H16V16H18Z" fill="currentColor"/>
</svg>
