<svg width="24" height="24" viewBox="0 0 24 24" fill="none" xmlns="http://www.w3.org/2000/svg">
<path fill-rule="evenodd" clip-rule="evenodd" d="M19 1H20V3H19V1ZM21 3H20V4H19V5H18V3H17V5H18V6H17V7H16V8H15V9H14V10H13H11V11H10V13H11V14H13V13H14V11V10H15V9H16V8H17V7H18V6H19V7H21V6H19V5H20V4H21V5H23V4H21V3ZM21 3V2H22V3H21ZM13 13V12H12V11H11V13H13ZM7 2H15V3H7V2ZM5 4V3H7V4H5ZM4 5V4H5V5H4ZM3 7V5H4V7H3ZM3 17H2V7H3V17ZM4 19H3V17H4V19ZM5 20H4V19H5V20ZM7 21H5V20H7V21ZM17 21V22H7V21H17ZM19 20V21H17V20H19ZM20 19V20H19V19H20ZM21 17V19H20V17H21ZM21 17V9H22V17H21ZM9 6H15V7H9V6ZM8 8V7H9V8H8ZM7 9V8H8V9H7ZM7 15H6V9H7V15ZM8 16H7V15H8V16ZM9 17H8V16H9V17ZM15 17V18H9V17H15ZM16 16V17H15V16H16ZM17 15V16H16V15H17ZM17 15V9H18V15H17Z" fill="currentColor"/>
</svg>
