<svg width="24" height="24" viewBox="0 0 24 24" fill="none" xmlns="http://www.w3.org/2000/svg">
<path fill-rule="evenodd" clip-rule="evenodd" d="M17 2H16V3H15V4H14V5H13V6H12V7H11V8H10V9H9V10H8V11H7V12H6V18H7H12V17H13V16H14V15H15V14H16V13H17V12H18V11H19V10H20V9H21V8H22V7H21V6H20V5H19V4H18V3H17V2ZM17 3V4H18V5H19V6H20V7H21V8H20V9H19V10H18V11H17V12H16V13H15V14H14V15H13V16H12V15H11V14H10V13H9V12H8V11H9V10H10V9H11V8H12V7H13V6H14V5H15V4H16V3H17ZM8 12V13H9V14H10V15H11V16H12V17H7V12H8ZM2 4H10V5H3V21H19V14H20V21V22H3H2V5V4Z" fill="currentColor"/>
</svg>
