<svg width="24" height="24" viewBox="0 0 24 24" fill="none" xmlns="http://www.w3.org/2000/svg">
<path fill-rule="evenodd" clip-rule="evenodd" d="M2 2H3V3H2V2ZM4 4H3V3H4V4ZM5 5H4V4H5V5ZM6 6H5V5H6V6ZM7 7H6V6H7V7ZM8 8H7V7H8V8ZM9 9H8V8H9V9ZM10 10H9V9H10V10ZM11 11H10V10H11V11ZM12 12H11V11H12V12ZM13 13H12V12H13V13ZM14 14H13V13H14V14ZM15 15H14V14H15V15ZM16 16H15V15H16V16ZM17 17H16V16H17V17ZM18 18H17V17H18V18ZM19 19H18V18H19V19ZM20 20H19V19H20V20ZM21 21H20V20H21V21ZM21 21H22V22H21V21ZM22 4H8V5H21V18H22V5V4ZM16 19V20H2V19V6H3V19H16ZM20 6H19V7H18V8H17V9H16V10H15V11H16V10H17V9H18V8H19V7H20V6Z" fill="currentColor"/>
</svg>
