<svg width="24" height="24" viewBox="0 0 24 24" fill="none" xmlns="http://www.w3.org/2000/svg">
<path fill-rule="evenodd" clip-rule="evenodd" d="M7 3H6V21H7H17H18V3H17H7ZM7 20H17V4H14V5V6H10V5V4H7V20ZM13 5V4H11V5H13ZM11 18H13V19H11V18ZM20 7H21V8H20V7ZM22 9H21V8H22V9ZM22 10V9H23V10H22ZM21 11V10H22V11H21ZM21 12H20V11H21V12ZM22 13H21V12H22V13ZM22 14V13H23V14H22ZM21 15V14H22V15H21ZM21 15V16H20V15H21ZM3 7H4V8H3V7ZM2 9V8H3V9H2ZM2 10H1V9H2V10ZM3 11H2V10H3V11ZM3 12V11H4V12H3ZM2 13V12H3V13H2ZM2 14H1V13H2V14ZM3 15V14H2V15H3ZM3 15V16H4V15H3Z" fill="currentColor"/>
</svg>
