<svg width="24" height="24" viewBox="0 0 24 24" fill="none" xmlns="http://www.w3.org/2000/svg">
<path fill-rule="evenodd" clip-rule="evenodd" d="M3 2H2V22H3H14H15V21V3V2H14H3ZM3 3H14V21H11V18V17H6V18V21H3V3ZM7 18V21H10V18H7ZM16 22V21V18H17V21H21V7H16V6H21H22V22H21H16ZM12 6H11V7H12V6ZM19 9H20V10H19V9ZM9 6H8V7H9V6ZM16 9H17V10H16V9ZM6 6H5V7H6V6ZM11 9H12V10H11V9ZM20 12H19V13H20V12ZM8 9H9V10H8V9ZM17 12H16V13H17V12ZM5 9H6V10H5V9ZM12 12H11V13H12V12ZM19 15H20V16H19V15ZM9 12H8V13H9V12ZM16 15H17V16H16V15ZM5 12H6V13H5V12Z" fill="currentColor"/>
</svg>
