<svg width="24" height="24" viewBox="0 0 24 24" fill="none" xmlns="http://www.w3.org/2000/svg">
<path fill-rule="evenodd" clip-rule="evenodd" d="M4 5H5V4V3H3V4V5H4ZM7 4V5H9V4V3H7V4ZM7 19H9V20V21H7V20V19ZM4 9H5V7H4H3V9H4ZM19 9V7H20H21V9H20H19ZM4 13H5V11H4H3V13H4ZM19 13V11H20H21V13H20H19ZM4 17H5V15H4H3V17H4ZM19 17V15H20H21V17H20H19ZM5 20V19H4H3V21H4H5V20ZM13 4V5H11V4V3H13V4ZM13 19H11V20V21H13V20V19ZM15 5V4V3H17V4V5H15ZM17 19H15V20V21H17V20V19ZM19 5V4V3H21V4V5H20H19ZM19 19V20V21H20H21V19H20H19Z" fill="currentColor"/>
</svg>
