<svg width="24" height="24" viewBox="0 0 24 24" fill="none" xmlns="http://www.w3.org/2000/svg">
<path fill-rule="evenodd" clip-rule="evenodd" d="M7 2H17V3H7V2ZM5 4V3H7V4H5ZM4 5V4H5V5H4ZM3 7V5H4V7H3ZM3 17H2V7H3V17ZM4 19H3V17H4V19ZM5 20H4V19H5V20ZM7 21H5V20H7V21ZM17 21V22H7V21H17ZM19 20V21H17V20H19ZM20 19V20H19V19H20ZM21 17V19H20V17H21ZM21 7H22V17H21V7ZM20 5H21V7H20V5ZM19 4H20V5H19V4ZM19 4V3H17V4H19ZM11 7H9V8H8V12H9V13H15V16H9V17H12V18H13V17H15V16H16V13H15V12H9V8H15V7H12V5H11V7Z" fill="currentColor"/>
</svg>
