<svg width="24" height="24" viewBox="0 0 24 24" fill="none" xmlns="http://www.w3.org/2000/svg">
<path fill-rule="evenodd" clip-rule="evenodd" d="M21 2H22V3V15H21V4H20V3H21V2ZM19 5V4H20V5H19ZM18 6V5H19V6H18ZM17 7V6H18V7H17ZM16 8V7H17V8H16ZM15 9V8H16V9H15ZM16 20H15V9H14V8H13V7H12V6H11V5H10V4H9V3H8V4H7V5H6V6H5V7H4V8H3V9H2V10V22H3V21H4V20H5V19H6V18H7V17H8V16H9V17H10V18H11V19H12V20H13V21H14V22H15V21H16V20ZM17 19V20H16V19H17ZM18 18V19H17V18H18ZM19 17V18H18V17H19ZM20 16V17H19V16H20ZM20 16H21V15H20V16ZM13 20V19H12V18H11V17H10V16H9V5H10V6H11V7H12V8H13V9H14V20H13ZM8 16V5H7V6H6V7H5V8H4V9H3V10V20H4V19H5V18H6V17H7V16H8Z" fill="currentColor"/>
</svg>
