<svg width="24" height="24" viewBox="0 0 24 24" fill="none" xmlns="http://www.w3.org/2000/svg">
<path fill-rule="evenodd" clip-rule="evenodd" d="M5 3H9V4H5V3ZM4 5V4H5V5H4ZM3 7V5H4V7H3ZM3 11H2V7H3V11ZM4 13H3V11H4V13ZM5 14H4V13H5V14ZM6 15H5V14H6V15ZM7 16H6V15H7V16ZM8 17H7V16H8V17ZM9 18H8V17H9V18ZM10 19H9V18H10V19ZM11 20H10V19H11V20ZM13 20V21H11V20H13ZM14 19V20H13V19H14ZM15 18V19H14V18H15ZM16 17V18H15V17H16ZM17 16V17H16V16H17ZM18 15V16H17V15H18ZM19 14V15H18V14H19ZM20 13V14H19V13H20ZM21 11V13H20V11H21ZM21 7H22V11H21V7ZM20 5H21V7H20V5ZM19 4V5H20V4H19ZM15 4H19V3H15V4ZM14 5V4H15V5H14ZM13 6V5H14V6H13ZM11 6H13V7H11V6ZM10 5H11V6H10V5ZM10 5V4H9V5H10Z" fill="currentColor"/>
</svg>
