<svg width="24" height="24" viewBox="0 0 24 24" fill="none" xmlns="http://www.w3.org/2000/svg">
<path fill-rule="evenodd" clip-rule="evenodd" d="M2 4H22V5V12H21V5H3V19H13V20H2V19V5V4ZM5 6H4V7H5V8H6V9H7V10H8V11H9V12H10V13H11V14H13V13H14V12H15V11H16V10H17V9H18V8H19V7H20V6H19V7H18V8H17V9H16V10H15V11H14V12H13V13H11V12H10V11H9V10H8V9H7V8H6V7H5V6ZM15 18H16V19H15V18ZM17 20H16V19H17V20ZM18 20V21H17V20H18ZM19 19V20H18V19H19ZM20 18V19H19V18H20ZM21 17V18H20V17H21ZM22 16H21V17H22V16ZM22 16V15H23V16H22Z" fill="currentColor"/>
</svg>
