<svg width="24" height="24" viewBox="0 0 24 24" fill="none" xmlns="http://www.w3.org/2000/svg">
<path fill-rule="evenodd" clip-rule="evenodd" d="M16 2H8V3H6V4H5V6H4V12H5V14H6V15H8V16V21H9V22H15V21H16V16V15H18V14H19V12H20V6H19V4H18V3H16V2ZM16 3V4H18V6H19V12H18V14H16V15H8V14H6V12H5V6H6V4H8V3H16ZM15 21V16H9V21H15ZM10 18V17H14V18H10ZM14 20V19H10V20H14ZM11 6H12V5H13V8H12V7H11V6ZM10 8V7H11V8H10ZM11 10H8V9H9V8H10V9H11V10ZM13 11V12H12V13H11V10H12V11H13ZM14 10V11H13V10H14ZM14 10H15V9H16V8H13V9H14V10Z" fill="currentColor"/>
</svg>
