<svg width="24" height="24" viewBox="0 0 24 24" fill="none" xmlns="http://www.w3.org/2000/svg">
<path fill-rule="evenodd" clip-rule="evenodd" d="M11 3H12H13V4H12V11H13V12V13H12V20H13V21H12H11V14H10V13H11V11H10V10H11V3ZM9 9H10V10H9V9ZM8 8H9V9H8V8ZM7 7H8V8H7V7ZM7 7H6V6H7V7ZM9 15V14H10V15H9ZM8 16V15H9V16H8ZM7 17H8V16H7V17ZM7 17V18H6V17H7ZM14 19V20H13V19H14ZM15 18V19H14V18H15ZM16 17V18H15V17H16ZM16 16H17V17H16V16ZM15 15H16V16H15V15ZM14 14H15V15H14V14ZM14 14V13H13V14H14ZM14 10V11H13V10H14ZM15 9V10H14V9H15ZM16 8V9H15V8H16ZM16 7H17V8H16V7ZM15 6H16V7H15V6ZM14 5H15V6H14V5ZM14 5V4H13V5H14Z" fill="currentColor"/>
</svg>
