<svg width="24" height="24" viewBox="0 0 24 24" fill="none" xmlns="http://www.w3.org/2000/svg">
<path fill-rule="evenodd" clip-rule="evenodd" d="M2 4H22V5V14H21V5H3V19H10V20H2V19V5V4ZM5 6H4V7H5V8H6V9H7V10H8V11H9V12H10V13H11V14H13V13H14V12H15V11H16V10H17V9H18V8H19V7H20V6H19V7H18V8H17V9H16V10H15V11H14V12H13V13H11V12H10V11H9V10H8V9H7V8H6V7H5V6ZM17 13H18V12H19V17H18V14H17V13ZM16 15V14H17V15H16ZM15 16V15H16V16H15ZM14 17V16H15V17H14ZM17 19H12V18H13V17H14V18H17V19ZM19 22V23H18V24H17V19H18V22H19ZM20 21V22H19V21H20ZM21 20V21H20V20H21ZM22 19V20H21V19H22ZM22 19H23V18H24V17H19V18H22V19Z" fill="currentColor"/>
</svg>
