<svg width="24" height="24" viewBox="0 0 24 24" fill="none" xmlns="http://www.w3.org/2000/svg">
<path fill-rule="evenodd" clip-rule="evenodd" d="M7 1H6V2H7V3H6V4H7V5H8V4H7V3H8V2H7V1ZM8 6H7V8H3V9H2V15V16V22H3H21H22V16V15V9H21V8H17V6H16V8H14V6H13V8H11V6H10V8H8V6ZM21 15V9H17V10H16V9H14V10H13V9H11V10H10V9H8V10H7V9H3V15H4V16H3V21H21V16H20V15H21ZM19 15V13H20V15H19ZM15 15H19V16H15V15ZM14 15V13H15V15H14ZM10 15H14V16H10V15ZM9 15V13H10V15H9ZM5 15H9V16H5V15ZM5 15V13H4V15H5ZM11 4H10V3H11V2H10V1H9V2H10V3H9V4H10V5H11V4ZM13 4H14V5H13V4ZM13 3V4H12V3H13ZM13 2H14V3H13V2ZM13 2H12V1H13V2ZM17 4H16V3H17V2H16V1H15V2H16V3H15V4H16V5H17V4Z" fill="currentColor"/>
</svg>
