<svg width="24" height="24" viewBox="0 0 24 24" fill="none" xmlns="http://www.w3.org/2000/svg">
<path fill-rule="evenodd" clip-rule="evenodd" d="M5 4H4V5H5V4ZM8 4H7V5H8V4ZM11 4H10V5H11V4ZM13 4H14V5H13V4ZM16 4H17V5H16V4ZM19 4H20V5H19V4ZM20 19H19V18H18V17H17V16H16V15H15V14H19V13H13V14V19H14V15H15V16H16V17H17V18H18V19H19V20H20V19ZM10 19H11V20H10V19ZM7 19H8V20H7V19ZM4 7H5V8H4V7ZM20 7H19V8H20V7ZM4 10H5V11H4V10ZM20 10H19V11H20V10ZM4 13H5V14H4V13ZM5 16H4V17H5V16ZM4 19H5V20H4V19Z" fill="currentColor"/>
</svg>
