<svg width="24" height="24" viewBox="0 0 24 24" fill="none" xmlns="http://www.w3.org/2000/svg">
<path fill-rule="evenodd" clip-rule="evenodd" d="M16 4H10V5H9V6H8V7H7V8H4V9H2V10H1V12H0V18H1V19H2V20H22V19H23V18H24V13H23V12H22V11H21V9H20V7H19V6H18V5H16V4ZM16 5V6H18V7H19V9H20V11H18V12H17V13H18V12H22V13H23V18H22V19H2V18H1V12H2V10H4V9H9V10H10V12H11V10H10V9H9V8H8V7H9V6H10V5H16ZM8 14H9V15H8V14ZM10 16H9V15H10V16ZM11 16V17H10V16H11ZM12 15V16H11V15H12ZM13 14V15H12V14H13ZM14 13V14H13V13H14ZM15 12H14V13H15V12ZM15 12V11H16V12H15Z" fill="currentColor"/>
</svg>
