<svg width="24" height="24" viewBox="0 0 24 24" fill="none" xmlns="http://www.w3.org/2000/svg">
<path fill-rule="evenodd" clip-rule="evenodd" d="M11 2H13V3H11V2ZM10 4V3H11V4H10ZM9 5V4H10V5H9ZM9 5V6H8V5H9ZM14 4H13V3H14V4ZM15 5H14V4H15V5ZM15 5H16V6H15V5ZM9 19H8V18H9V19ZM10 20H9V19H10V20ZM11 21H10V20H11V21ZM13 21V22H11V21H13ZM14 20V21H13V20H14ZM15 19V20H14V19H15ZM15 19V18H16V19H15ZM5 8H6V16H5V10H4V9H5V8ZM3 11H4V10H3V11ZM3 11V12H2V11H3ZM14 8H8V9H13V12H8V13V16H9H14V15H9V13H13H14V9V8ZM16 8H22V9V12V13V15V16H16V15H21V13H16V12H21V9H16V8Z" fill="currentColor"/>
</svg>
