<svg width="24" height="24" viewBox="0 0 24 24" fill="none" xmlns="http://www.w3.org/2000/svg">
<path fill-rule="evenodd" clip-rule="evenodd" d="M18 2H11V3H9V4H8V5H7V7H6V11H7V7H8V5H9V4H11V3H16V4H15V5H14V7H13V10H14V11H15V12H19V11H20V10H21V14H20V16H19V17H18V18H19V17H20V16H21V14H22V8H21V9H20V10H19V11H15V10H14V7H15V5H16V4H17V3H18V2ZM8 12H12V13H8V12ZM7 14V13H8V14H7ZM8 16V15H7V14H6V15H4V16H3V17H2V20H3V21H4V22H15V21H16V20H17V17H16V15H15V14H14V13H12V14H14V15H15V17H16V20H15V21H4V20H3V17H4V16H8ZM9 17H8V16H9V17ZM9 17H10V18H9V17Z" fill="currentColor"/>
</svg>
