<svg width="24" height="24" viewBox="0 0 24 24" fill="none" xmlns="http://www.w3.org/2000/svg">
<path fill-rule="evenodd" clip-rule="evenodd" d="M15 5H10V6H7V7H5V8H4V9H3V10H2V12H1V15H2V17H3V18H4V19H5V18H4V17H3V15H2V12H3V10H4V9H5V8H7V7H10V6H15V5ZM22 10H21V12H22V15H21V17H20V18H19V19H20V18H21V17H22V15H23V12H22V10ZM19 7H20V8H19V7ZM18 9V8H19V9H18ZM17 10V9H18V10H17ZM16 11V10H17V11H16ZM15 12V11H16V12H15ZM14 13V12H15V13H14ZM13 16H14V14V13H13H11V14H10V16H11V17H13V16ZM13 16H11V14H13V16Z" fill="currentColor"/>
</svg>
