<svg width="24" height="24" viewBox="0 0 24 24" fill="none" xmlns="http://www.w3.org/2000/svg">
<path fill-rule="evenodd" clip-rule="evenodd" d="M2 5H16V6V9H17V10H16V14H17V15H16V18V19H2V18V6V5ZM18 16H17V15H18V16ZM19 17H18V16H19V17ZM20 18H19V17H20V18ZM20 6V5H22V6V18V19H20V18H21V6H20ZM19 7V6H20V7H19ZM18 8V7H19V8H18ZM18 8H17V9H18V8ZM3 6H15V18H3V6ZM9 11H10V12V13H9H8V12V11H9ZM7 10H8V11H7V10ZM7 10H6V9H7V10ZM7 14V13H8V14H7ZM7 14H6V15H7V14ZM11 14H10V13H11V14ZM11 14H12V15H11V14ZM11 10V11H10V10H11ZM11 10V9H12V10H11Z" fill="currentColor"/>
</svg>
