<svg width="24" height="24" viewBox="0 0 24 24" fill="none" xmlns="http://www.w3.org/2000/svg">
<g clip-path="url(#clip0_1_6377)">
<path d="M0 0H2V2H0V0Z" fill="currentColor"/>
<path d="M2 2H4V4H2V2Z" fill="currentColor"/>
<path d="M20 2H22V4H20V2Z" fill="currentColor"/>
<path d="M22 0H24V2H22V0Z" fill="currentColor"/>
<path d="M2 20H4V22H2V20Z" fill="currentColor"/>
<path d="M0 22H2V24H0V22Z" fill="currentColor"/>
<path d="M20 20H22V22H20V20Z" fill="currentColor"/>
<path d="M22 22H24V24H22V22Z" fill="currentColor"/>
<path d="M8 17H16V19H8V17Z" fill="currentColor"/>
<path d="M16 15H20V17H16V15Z" fill="currentColor"/>
<path d="M8 15H4V17H8V15Z" fill="currentColor"/>
<path d="M16 7H20V9H16V7Z" fill="currentColor"/>
<path d="M8 7H4V9H8V7Z" fill="currentColor"/>
<path d="M20 9H22V11H20V9Z" fill="currentColor"/>
<path d="M4 9H2V11H4V9Z" fill="currentColor"/>
<path d="M22 11H24V13H22V11Z" fill="currentColor"/>
<path d="M2 11H0V13H2V11Z" fill="currentColor"/>
<path d="M20 13H22V15H20V13Z" fill="currentColor"/>
<path d="M4 13H2V15H4V13Z" fill="currentColor"/>
<path d="M8 5H16V7H8V5Z" fill="currentColor"/>
<path d="M10 10H14V14H10V10Z" fill="currentColor"/>
</g>
<defs>
<clipPath id="clip0_1_6377">
<rect width="24" height="24" fill="white"/>
</clipPath>
</defs>
</svg>
